<svg xmlns="http://www.w3.org/2000/svg" xmlns:xlink="http://www.w3.org/1999/xlink" preserveAspectRatio="xMidYMid meet" version="1.0" viewBox="227.92 161.82 401.85 383.52"><defs><g/></defs><g fill="#76C8BF" fill-opacity="1"><g transform="translate(217.930773, 541.424225)"><g><path d="M 174.515625 0 C 152.285156 -24.453125 131.164062 -61.691406 118.9375 -101.707031 L 201.75 -101.707031 C 220.089844 -47.242188 264.550781 3.890625 325.6875 3.890625 C 354.03125 3.890625 389.601562 -6.667969 411.832031 -37.792969 L 402.386719 -47.796875 C 384.601562 -28.902344 356.253906 -31.125 342.359375 -62.804688 C 320.128906 -114.492188 308.457031 -180.628906 284.558594 -251.769531 C 263.996094 -314.015625 206.75 -379.597656 94.484375 -379.597656 L 94.484375 -365.148438 C 119.492188 -365.148438 129.496094 -341.25 143.945312 -294.5625 C 129.496094 -276.777344 113.933594 -256.769531 101.707031 -237.875 C 64.46875 -181.183594 10.003906 -80.03125 10.003906 0 Z M 197.300781 -115.046875 L 115.601562 -115.046875 C 103.375 -162.289062 103.929688 -212.863281 128.941406 -250.65625 C 135.609375 -260.660156 142.28125 -269.554688 148.949219 -279 C 165.066406 -226.757812 180.628906 -166.179688 197.300781 -115.046875 Z M 197.300781 -115.046875 "/></g></g></g></svg>