<?xml version="1.0" encoding="utf-8"?>
<svg version="1.1" id="Layer_1" x="0px" y="0px" style="enable-background:new 0 0 1377 898;" viewBox="173.717 260.872 1071.554 341.981" xmlns="http://www.w3.org/2000/svg">
  <style type="text/css">
	.st0{fill:#FFFFFF;}
	.st1{fill:#9ECDCA;}
	.st2{fill:#231F20;}
	.st3{fill:#EC2027;}
	.st4{clip-path:url(#SVGID_00000133500675107485119010000014746695825663364792_);}
	.st5{fill:#B82025;}
	.st6{clip-path:url(#SVGID_00000157993378327087905740000000227682310778375325_);}
	.st7{clip-path:url(#SVGID_00000074403365670774400020000012362529933226594951_);}
	.st8{clip-path:url(#SVGID_00000094611460443194766300000011099334765768983219_);}
	.st9{clip-path:url(#SVGID_00000069385629454111265080000013272466115348036773_);}
	.st10{clip-path:url(#SVGID_00000096026169266588278050000016946109715020919939_);}
	.st11{clip-path:url(#SVGID_00000083084250553158813800000012143732086981484433_);}
	.st12{clip-path:url(#SVGID_00000043434381514438988150000003686504617419626382_);}
	.st13{fill:#B9020D;}
	.st14{fill:#238680;}
</style>
  <g transform="matrix(1, 0, 0, 1, 20.44153, -193.918304)">
    <g/>
    <g/>
    <g/>
    <g/>
    <g/>
    <g>
      <path d="M506.59,707.15c-14.12,0.51-24.45-7.36-33.04-17.73c-1.64-1.99-1-4.72-1.01-7.14c-0.03-15.67-0.02-31.34-0.02-47.02h0.17    c0-15.18-0.07-30.36,0.05-45.54c0.03-3.4,0.31-6.9,1.18-10.16c2.52-9.47,8.79-12,17.18-6.97c9.15,5.48,14.84,14.16,19.81,23.18    c13.79,25.02,19.39,52.18,19.27,80.48C530.09,695.18,521.24,706.62,506.59,707.15L506.59,707.15z M275.2,640.06    c-12.91-0.45-25.85-0.19-38.78-0.09c-4.16,0.03-7.02-0.63-8.14-5.62c-8.12-36.36-4.57-70.22,20.5-99.69    c0.55-0.65,1.49-0.98,3.24-2.08c2.26,7.2,4.48,13.95,6.49,20.78c7.65,25.99,15.05,52.06,22.96,77.98    C283.5,637.97,282.57,640.32,275.2,640.06L275.2,640.06z M468.22,568.76c-5.67,4.19-12.15,7.43-18.61,10.35    c-17.74,8.05-26.74,3.99-32.69-14.39c-0.77-2.38-2.02-3.11-4.24-2.97c-2.13,0.13-3.01,1.42-3.1,3.37    c-0.03,0.71-0.04,1.42-0.06,2.13v122.26c-0.14,0.16-0.28,0.31-0.45,0.46c-0.45,0.4-1,0.76-1.7,1.05    c-5.14,2.19-10.62,0.59-15.35-2.37c-4.38-2.73-7.78-6.53-9.8-11.27c-3.34-7.82-6.99-15.58-9.42-23.69    c-10.32-34.41-20.09-68.99-30.38-103.41c-6.95-23.26-19.83-43.08-38.89-57.93c-24.08-18.77-52.12-27.59-82.63-28.42    c-1.79-0.05-4.02-0.86-4.91,1.51c-1.08,2.87,0.4,4.98,2.84,6.22c15.91,8.08,20.54,23.61,26.31,38.67    c2.72,7.11,1.55,12.11-3.12,17.91c-30.1,37.41-53.02,78.95-69.9,123.85c-6.58,17.5-10.73,35.6-12.68,54.16    c-0.4,3.8-2.61,9.74,4.89,9.76c33.99,0.09,67.97,0.04,104.1,0.04c-15.88-19.32-26.41-38.91-34.08-60.13    c-2.09-5.78-1.11-7.97,5.39-7.82c13.24,0.31,26.49,0.27,39.74,0.01c5.24-0.1,8.13,1.86,9.8,6.77c3.7,10.86,9.89,20.39,16.6,29.59    c23.25,31.87,61.32,42.99,95.35,27.08c4.34-2.03,6.64-2.34,7.86-1.15c0.18,0.17,0.32,0.4,0.45,0.63v5v5.37    c-0.15,21.65-0.07,43.31-0.02,64.97c0,0.82-0.06,1.69,0.02,2.49c0.15,1.48,0.79,2.72,3.24,2.91c3.37,0.26,4-1.65,4.42-4.41    c1.61-10.71,8.49-16.06,18.68-17.88c6.75-1.21,13.56-2.14,20.21-3.75c11.34-2.75,15.6-8.19,15.77-19.78    c0.17-11.03,0.02-22.07,0.1-33.1c0.01-1.87-0.87-4.36,1.08-5.45c2.04-1.13,3.49,1.2,4.99,2.2c14.49,9.66,29.84,11.4,46.28,5.73    c33.38-11.53,64.2-46.58,56.12-92.94C570.4,564.87,499.91,545.33,468.22,568.76L468.22,568.76z"/>
    </g>
    <g>
      <path d="M1116.71,647.79c-1.5,10.45-1.14,21.01-1.04,31.55c0.06,6.11,0.54,12.24-0.67,18.32c-1.98,9.9-8.67,13.25-17.87,8.88    c-0.44-0.21-0.87-0.45-1.3-0.69c-14.09-7.94-27.9-43.37-22.98-58.82c2.14-6.7,6.82-10.66,13.44-12.27    c5.23-1.28,10.56-2.23,15.4-1.78c1.34,0,2.08-0.01,2.81,0C1118.36,633.2,1118.73,633.85,1116.71,647.79L1116.71,647.79z     M1216.77,683.48c-3.15-3.22-4.73,0.35-6.67,1.67c-9.47,6.41-18.37,5.64-24.62-2.76c-3.67-4.93-5.79-10.61-6.18-16.95    c-0.69-10.92,2.34-21.35,3.81-31.98c3.78-27.32-6.6-52.14-28.59-64.42c-23.08-12.88-47.29-12.96-71.61-3.36    c-9.33,3.68-18.24,8.47-27.64,11.91c-14.11,5.15-18.99,2.24-22.16-12.26c-0.61-2.8-1.59-4.42-4.73-4.34    c-2.94,0.07-3.73,1.82-3.97,4.24c-1.32,13.73-1.92,27.45,2.93,40.69c3.13,8.55,8.91,14.45,18.05,16.75    c18.8,4.74,31.71-2.11,37.8-20.53c2.69-8.13,4.66-16.49,7.34-24.62c2.51-7.6,8.37-10.35,16.08-10.01    c7.44,0.33,10.61,5.12,12.52,11.43c4.18,13.78,2.51,27.63,0.88,41.55c-0.6,5.21-2.58,7-7.97,6.6c-15.9-1.18-31.85-1.15-47.63,1.46    c-15.4,2.54-30.51,6.29-41.11,18.99c-18.19,21.79-7.37,54.31,21.45,64.27c17.14,5.92,35.02,7.24,52.98,5.77    c10.81-0.89,21-3.89,25.15-17.75c10.88,14.61,24.65,19.74,40.85,17.57c20.14-2.7,37.14-11.96,51.08-26.71    C1216.58,688.8,1220.18,686.97,1216.77,683.48L1216.77,683.48z"/>
    </g>
    <g>
      <path d="M726.1,684.64c0.2,11.64-4.47,17.04-12.05,20.34c-6.86,2.98-12.47,0.79-17.91-3.9c-27.95-24.09-45.62-55.32-61.31-87.91    c-3.4-7.06-5.73-14.64-5.82-22.62c-0.16-15.32,12.64-23.12,26.21-15.85c11.09,5.94,18.69,15.67,26.28,25.29    c12.75,16.14,23.21,33.9,32.72,51.94C719.93,662.76,727.06,674.08,726.1,684.64L726.1,684.64z M718.59,567.66    c-19.21-8.1-39.29-10.63-60.03-6.9c-70.33,12.68-79.63,84.67-53.89,122.8c17.39,25.77,43.36,34.57,73.33,35.24    c12.36-0.93,24.52-2.61,36.78-7.32c18.3-7.03,31.05-19.05,40.03-35.48c11.53-21.09,10.24-43.64,3.56-65.58    C752.21,590.22,738.07,575.87,718.59,567.66L718.59,567.66z"/>
    </g>
    <g>
      <path d="M924.56,561.08c-2.13-0.08-3.88,0.24-4.29,2.85c-0.37,2.42-0.74,4.87-1.47,7.19c-2.56,8.13-10.26,11.12-17.48,6.59    c-3.07-1.93-5.77-4.54-8.41-7.07c-5.25-5.04-11.29-8.41-18.42-10.12c-15.74-3.77-29.52,0.18-41.97,10.03    c-6.37,5.04-13.02,9.6-21.07,11.62c-16.44,4.12-25.62-0.6-28.74-14.65c-0.62-2.77,0.24-7.17-4.92-6.35    c-4.52,0.72-2.9,4.54-2.91,7.12c-0.12,23.53-0.07,47.05-0.07,70.58s0.19,47.05-0.13,70.58c-0.08,5.95,1.89,7.49,7.56,7.37    c15.92-0.33,31.86-0.47,47.77,0.05c6.74,0.22,8.1-2.08,8.04-8.34c-0.35-39.45-0.39-78.91-0.32-118.36    c0.01-6.14-1.07-13.49,6.91-16.08c5.43-1.77,10.06,2.84,13.69,12.69c2.87,7.8,4.69,16,9.14,23.18    c11.69,18.83,41.97,19.16,53.23,0.06c8.29-14.06,8.27-29.93,7.09-45.73C927.64,562.24,926.64,561.15,924.56,561.08L924.56,561.08z    "/>
    </g>
    <g>
      <path d="M992.14,599.73c-4.01-1.7-8.4-2.78-12.72-3.39c-13.58-1.9-27.11-3.79-38.43-13.15c-0.52,1.28-1,1.91-1,2.54    c-0.06,41.92-0.04,83.84-0.16,125.76c-0.01,4.4,2.06,5.27,5.89,5.24c17.16-0.12,34.32-0.13,51.48,0c3.9,0.03,5.8-0.99,5.78-5.33    c-0.14-32.12-0.08-64.23-0.17-96.35C1002.79,607.62,998.72,602.51,992.14,599.73L992.14,599.73z"/>
    </g>
    <g>
      <path d="M980.29,520.5c-3.63-0.15-7.29,0.36-10.24,0.53c-4.59-0.26-8.38-0.69-12.28,0.63c-16.98,5.74-26.29,23.16-21.75,41.17    c5.78,22.99,36.13,33.28,57.59,19.49c11.3-7.26,13.82-17.8,14.04-30.83C1007.87,538.5,994.06,521.08,980.29,520.5L980.29,520.5z"/>
    </g>
    <g/>
    <g/>
    <g/>
    <g/>
    <g/>
    <g/>
    <g/>
    <g/>
    <g/>
    <g/>
    <g/>
    <g/>
    <g/>
    <g/>
    <g/>
    <g/>
    <g/>
    <g/>
    <g/>
    <g/>
    <g/>
    <g/>
    <g/>
    <g/>
    <g/>
    <g/>
    <g/>
    <g/>
    <g/>
  </g>
  <text style="fill: rgb(51, 51, 51); font-family: Arial, sans-serif; font-size: 28px; font-style: italic; font-weight: 700; letter-spacing: -0.5px; text-transform: capitalize; white-space: pre;" x="920.661" y="555.709">The Beauty in Paradox</text>
</svg>