<svg version="1.0" xmlns="http://www.w3.org/2000/svg" preserveAspectRatio="xMidYMid meet" viewBox="58.1 19.33 83.87 89.2">
<metadata>
Created by potrace 1.16, written by Peter Selinger 2001-2019
</metadata>
<g transform="translate(0.000000,122.000000) scale(0.100000,-0.100000)" fill="#000000" stroke="none">
<path d="M933 1016 c-171 -43 -307 -187 -344 -365 -16 -80 -7 -214 21 -286 32 -82 122 -173 205 -205 85 -33 244 -34 328 -1 60 23 69 40 44 75 -12 17 -16 17 -77 -4 -129 -44 -284 -10 -361 77 -60 69 -74 114 -74 244 0 113 1 116 38 191 67 137 177 209 319 209 166 1 269 -83 299 -244 19 -104 -17 -221 -81 -264 -39 -27 -44 -28 -64 -7 -22 21 -20 68 9 214 14 69 25 130 25 137 0 18 -97 36 -170 31 -120 -9 -218 -82 -260 -195 -37 -100 -22 -194 39 -246 60 -50 186 -30 240 39 14 18 21 22 21 11 0 -8 12 -30 27 -47 25 -31 29 -32 89 -28 74 5 117 30 162 97 41 61 55 122 51 228 -3 76 -9 98 -37 155 -61 124 -164 187 -317 194 -46 2 -102 -2 -132 -10z m161 -299 c13 -20 13 -31 1 -91 -18 -83 -54 -147 -99 -175 -44 -27 -71 -26 -101 4 -62 62 -3 219 99 266 55 25 82 24 100 -4z"/>
</g>
</svg>