<?xml version="1.0" encoding="utf-8"?>
<svg version="1.1" id="Layer_1" x="0px" y="0px" viewBox="83.164 70.227 2048.597 94.952" style="enable-background:new 0 0 2214 362;" xmlns="http://www.w3.org/2000/svg">
  <style type="text/css">
	.st0{fill:#FFFFFF;}
	.st1{fill:#9ECDCA;}
	.st2{fill:#231F20;}
	.st3{fill:#EC2027;}
	.st4{clip-path:url(#SVGID_00000025420729936159575540000015105345905469644948_);}
	.st5{fill:#B82025;}
	.st6{clip-path:url(#SVGID_00000138571462882666027980000002146801877965346980_);}
	.st7{clip-path:url(#SVGID_00000031203724525855737800000015754575622004144298_);}
	.st8{clip-path:url(#SVGID_00000137841301950792815600000009050841709386759831_);}
	.st9{clip-path:url(#SVGID_00000112610218821522215250000013264097906146931133_);}
	.st10{clip-path:url(#SVGID_00000124841569088665383750000011037726336675099070_);}
	.st11{clip-path:url(#SVGID_00000166668224460085690920000000801047317849091489_);}
	.st12{clip-path:url(#SVGID_00000088844491021364379520000017102240948299944860_);}
	.st13{fill:#B9020D;}
	.st14{fill:#238680;}
</style>
  <g>
    <g>
      <g/>
      <g/>
      <g/>
      <g/>
    </g>
    <g>
      <g>
        <rect x="82.5" y="113.9" class="st1" width="751.5" height="8"/>
      </g>
      <g>
        <rect x="1380" y="113.9" class="st1" width="751.5" height="8"/>
      </g>
    </g>
    <g>
      <g>
        <path class="st1" d="M1046.95,103.07c-1.52,1.12-3.26,1.99-4.99,2.78c-4.76,2.16-7.17,1.07-8.76-3.86 c-0.21-0.64-0.54-0.83-1.14-0.8c-0.57,0.04-0.81,0.38-0.83,0.9c-0.01,0.19-0.01,0.38-0.02,0.57v32.78 c-0.04,0.04-0.08,0.08-0.12,0.12c-0.12,0.11-0.27,0.2-0.45,0.28c-1.38,0.59-2.85,0.16-4.12-0.63c-1.17-0.73-2.08-1.75-2.63-3.02 c-0.9-2.1-1.87-4.18-2.53-6.35c-2.77-9.22-5.39-18.49-8.14-27.72c-1.86-6.24-5.32-11.55-10.43-15.53 c-6.46-5.03-13.97-7.4-22.15-7.62c-0.48-0.01-1.08-0.23-1.32,0.41c-0.29,0.77,0.11,1.33,0.76,1.67 c4.26,2.17,5.51,6.33,7.05,10.37c0.73,1.91,0.41,3.25-0.84,4.8c-8.07,10.03-14.21,21.17-18.74,33.2 c-1.76,4.69-2.88,9.54-3.4,14.52c-0.11,1.02-0.7,2.61,1.31,2.62c9.11,0.02,18.22,0.01,27.91,0.01 c-4.26-5.18-7.08-10.43-9.14-16.12c-0.56-1.55-0.3-2.14,1.44-2.1c3.55,0.08,7.1,0.07,10.65,0c1.4-0.03,2.18,0.5,2.63,1.82 c0.99,2.91,2.65,5.47,4.45,7.93c6.23,8.54,16.44,11.52,25.56,7.26c1.16-0.54,1.78-0.63,2.11-0.31c0.05,0.05,0.08,0.11,0.12,0.17 v1.34V144c-0.04,5.81-0.02,11.61-0.01,17.42c0,0.22-0.02,0.45,0.01,0.67c0.04,0.4,0.21,0.73,0.87,0.78 c0.9,0.07,1.07-0.44,1.18-1.18c0.43-2.87,2.28-4.3,5.01-4.79c1.81-0.32,3.64-0.57,5.42-1c3.04-0.74,4.18-2.2,4.23-5.3 c0.04-2.96,0.01-5.92,0.03-8.87c0-0.5-0.23-1.17,0.29-1.46c0.55-0.3,0.93,0.32,1.34,0.59c3.89,2.59,8,3.06,12.41,1.54 c8.95-3.09,17.21-12.49,15.04-24.92C1074.34,102.03,1055.44,96.79,1046.95,103.07z M995.2,122.19c-3.46-0.12-6.93-0.05-10.4-0.03 c-1.12,0.01-1.88-0.17-2.18-1.51c-2.18-9.75-1.22-18.82,5.5-26.73c0.15-0.18,0.4-0.26,0.87-0.56c0.6,1.93,1.2,3.74,1.74,5.57 c2.05,6.97,4.03,13.96,6.16,20.9C997.43,121.63,997.18,122.26,995.2,122.19z M1057.23,140.17c-3.78,0.14-6.56-1.97-8.86-4.75 c-0.44-0.53-0.27-1.26-0.27-1.91c-0.01-4.2,0-8.4,0-12.6c0.02,0,0.03,0,0.04,0c0-4.07-0.02-8.14,0.01-12.21 c0.01-0.91,0.08-1.85,0.32-2.72c0.68-2.54,2.36-3.22,4.61-1.87c2.45,1.47,3.98,3.8,5.31,6.22c3.7,6.71,5.2,13.99,5.17,21.58 C1063.53,136.96,1061.16,140.03,1057.23,140.17z"/>
      </g>
      <g>
        <path class="st1" d="M1247.62,133.83c-0.84-0.86-1.27,0.09-1.79,0.45c-2.54,1.72-4.93,1.51-6.6-0.74 c-0.98-1.32-1.55-2.84-1.66-4.54c-0.18-2.93,0.63-5.72,1.02-8.57c1.01-7.33-1.77-13.98-7.66-17.27 c-6.19-3.45-12.68-3.48-19.2-0.9c-2.5,0.99-4.89,2.27-7.41,3.19c-3.78,1.38-5.09,0.6-5.94-3.29c-0.16-0.75-0.43-1.18-1.27-1.16 c-0.79,0.02-1,0.49-1.06,1.14c-0.35,3.68-0.52,7.36,0.79,10.91c0.84,2.29,2.39,3.87,4.84,4.49c5.04,1.27,8.5-0.57,10.13-5.5 c0.72-2.18,1.25-4.42,1.97-6.6c0.67-2.04,2.24-2.77,4.31-2.68c1.99,0.09,2.84,1.37,3.36,3.06c1.12,3.69,0.67,7.41,0.24,11.14 c-0.16,1.4-0.69,1.88-2.14,1.77c-4.26-0.32-8.54-0.31-12.77,0.39c-4.13,0.68-8.18,1.69-11.02,5.09 c-4.88,5.84-1.98,14.56,5.75,17.23c4.59,1.59,9.39,1.94,14.2,1.55c2.9-0.24,5.63-1.04,6.74-4.76c2.92,3.92,6.61,5.29,10.95,4.71 c5.4-0.72,9.96-3.21,13.69-7.16C1247.57,135.25,1248.53,134.76,1247.62,133.83z M1220.8,124.26c-0.4,2.8-0.31,5.63-0.28,8.46 c0.02,1.64,0.15,3.28-0.18,4.91c-0.53,2.65-2.32,3.55-4.79,2.38c-0.12-0.06-0.23-0.12-0.35-0.18 c-3.78-2.13-7.48-11.63-6.16-15.77c0.57-1.8,1.83-2.86,3.6-3.29c1.4-0.34,2.83-0.6,4.13-0.48c0.36,0,0.56,0,0.75,0 C1221.24,120.35,1221.34,120.52,1220.8,124.26z"/>
      </g>
      <g>
        <path class="st1" d="M1114.07,102.78c-5.15-2.17-10.53-2.85-16.09-1.85c-18.85,3.4-21.35,22.7-14.45,32.92 c4.66,6.91,11.62,9.27,19.66,9.45c3.31-0.25,6.57-0.7,9.86-1.96c4.9-1.88,8.32-5.11,10.73-9.51c3.09-5.65,2.75-11.7,0.95-17.58 C1123.08,108.82,1119.29,104.98,1114.07,102.78z M1116.08,134.14c0.05,3.12-1.2,4.57-3.23,5.45c-1.84,0.8-3.34,0.21-4.8-1.05 c-7.49-6.46-12.23-14.83-16.44-23.57c-0.91-1.89-1.54-3.92-1.56-6.06c-0.04-4.11,3.39-6.2,7.03-4.25 c2.97,1.59,5.01,4.2,7.05,6.78c3.42,4.33,6.22,9.09,8.77,13.92C1114.43,128.27,1116.34,131.31,1116.08,134.14z"/>
      </g>
      <g>
        <path class="st1" d="M1169.28,101.01c-0.57-0.02-1.04,0.06-1.15,0.76c-0.1,0.65-0.2,1.31-0.39,1.93 c-0.69,2.18-2.75,2.98-4.69,1.77c-0.82-0.52-1.55-1.22-2.25-1.9c-1.41-1.35-3.03-2.26-4.94-2.71c-4.22-1.01-7.91,0.05-11.25,2.69 c-1.71,1.35-3.49,2.57-5.65,3.12c-4.41,1.11-6.87-0.16-7.71-3.93c-0.17-0.74,0.06-1.92-1.32-1.7c-1.21,0.19-0.78,1.22-0.78,1.91 c-0.03,6.31-0.02,12.61-0.02,18.92c0,6.31,0.05,12.61-0.04,18.92c-0.02,1.6,0.51,2.01,2.03,1.98c4.27-0.09,8.54-0.12,12.81,0.01 c1.81,0.06,2.17-0.56,2.16-2.24c-0.09-10.58-0.1-21.15-0.09-31.73c0-1.65-0.29-3.62,1.85-4.31c1.46-0.47,2.7,0.76,3.67,3.4 c0.77,2.09,1.26,4.29,2.45,6.21c3.13,5.05,11.25,5.14,14.27,0.02c2.22-3.77,2.22-8.02,1.9-12.26 C1170.11,101.32,1169.84,101.03,1169.28,101.01z"/>
      </g>
      <g>
        <path class="st1" d="M1187.4,111.37c-1.07-0.45-2.25-0.75-3.41-0.91c-3.64-0.51-7.27-1.02-10.3-3.53 c-0.14,0.34-0.27,0.51-0.27,0.68c-0.02,11.24-0.01,22.48-0.04,33.72c0,1.18,0.55,1.41,1.58,1.41c4.6-0.03,9.2-0.03,13.8,0 c1.05,0.01,1.56-0.27,1.55-1.43c-0.04-8.61-0.02-17.22-0.05-25.83C1190.26,113.49,1189.16,112.12,1187.4,111.37z"/>
      </g>
      <g>
        <path class="st1" d="M1184.22,90.14c-0.97-0.04-1.96,0.1-2.74,0.14c-1.23-0.07-2.25-0.19-3.29,0.17 c-4.55,1.54-7.05,6.21-5.83,11.04c1.55,6.16,9.69,8.92,15.44,5.23c3.03-1.95,3.7-4.77,3.76-8.27 C1191.62,94.96,1187.92,90.29,1184.22,90.14z"/>
      </g>
    </g>
  </g>
</svg>