<?xml version="1.0" encoding="utf-8"?>
<svg version="1.1" id="Layer_1" x="0px" y="0px" style="enable-background:new 0 0 1377 898;" viewBox="158.8 106.18 1059.4 692.25" xmlns="http://www.w3.org/2000/svg" xmlns:bx="https://boxy-svg.com">
  <defs>
    <style bx:fonts="Agdasima">@import url(https://fonts.googleapis.com/css2?family=Agdasima%3Aital%2Cwght%400%2C400%3B0%2C700&amp;display=swap);</style>
  </defs>
  <style type="text/css">
	.st0{fill:#FFFFFF;}
	.st1{fill:#9ECDCA;}
	.st2{fill:#231F20;}
	.st3{fill:#EC2027;}
	.st4{clip-path:url(#SVGID_00000133500675107485119010000014746695825663364792_);}
	.st5{fill:#B82025;}
	.st6{clip-path:url(#SVGID_00000157993378327087905740000000227682310778375325_);}
	.st7{clip-path:url(#SVGID_00000074403365670774400020000012362529933226594951_);}
	.st8{clip-path:url(#SVGID_00000094611460443194766300000011099334765768983219_);}
	.st9{clip-path:url(#SVGID_00000069385629454111265080000013272466115348036773_);}
	.st10{clip-path:url(#SVGID_00000096026169266588278050000016946109715020919939_);}
	.st11{clip-path:url(#SVGID_00000083084250553158813800000012143732086981484433_);}
	.st12{clip-path:url(#SVGID_00000043434381514438988150000003686504617419626382_);}
	.st13{fill:#B9020D;}
	.st14{fill:#238680;}
</style>
  <g>
    <g>
      <text style="font-family: Agdasima; font-size: 21px; font-weight: 700; white-space: pre;" transform="matrix(1.984758, 0, 0, 3.643308, -992.531433, -1894.464111)" x="902.982" y="734.343">The Beauty In Paradox</text>
    </g>
    <g/>
    <g/>
    <g/>
    <g/>
    <g>
      <path d="M506.59,707.15c-14.12,0.51-24.45-7.36-33.04-17.73c-1.64-1.99-1-4.72-1.01-7.14c-0.03-15.67-0.02-31.34-0.02-47.02h0.17    c0-15.18-0.07-30.36,0.05-45.54c0.03-3.4,0.31-6.9,1.18-10.16c2.52-9.47,8.79-12,17.18-6.97c9.15,5.48,14.84,14.16,19.81,23.18    c13.79,25.02,19.39,52.18,19.27,80.48C530.09,695.18,521.24,706.62,506.59,707.15L506.59,707.15z M275.2,640.06    c-12.91-0.45-25.85-0.19-38.78-0.09c-4.16,0.03-7.02-0.63-8.14-5.62c-8.12-36.36-4.57-70.22,20.5-99.69    c0.55-0.65,1.49-0.98,3.24-2.08c2.26,7.2,4.48,13.95,6.49,20.78c7.65,25.99,15.05,52.06,22.96,77.98    C283.5,637.97,282.57,640.32,275.2,640.06L275.2,640.06z M468.22,568.76c-5.67,4.19-12.15,7.43-18.61,10.35    c-17.74,8.05-26.74,3.99-32.69-14.39c-0.77-2.38-2.02-3.11-4.24-2.97c-2.13,0.13-3.01,1.42-3.1,3.37    c-0.03,0.71-0.04,1.42-0.06,2.13v122.26c-0.14,0.16-0.28,0.31-0.45,0.46c-0.45,0.4-1,0.76-1.7,1.05    c-5.14,2.19-10.62,0.59-15.35-2.37c-4.38-2.73-7.78-6.53-9.8-11.27c-3.34-7.82-6.99-15.58-9.42-23.69    c-10.32-34.41-20.09-68.99-30.38-103.41c-6.95-23.26-19.83-43.08-38.89-57.93c-24.08-18.77-52.12-27.59-82.63-28.42    c-1.79-0.05-4.02-0.86-4.91,1.51c-1.08,2.87,0.4,4.98,2.84,6.22c15.91,8.08,20.54,23.61,26.31,38.67    c2.72,7.11,1.55,12.11-3.12,17.91c-30.1,37.41-53.02,78.95-69.9,123.85c-6.58,17.5-10.73,35.6-12.68,54.16    c-0.4,3.8-2.61,9.74,4.89,9.76c33.99,0.09,67.97,0.04,104.1,0.04c-15.88-19.32-26.41-38.91-34.08-60.13    c-2.09-5.78-1.11-7.97,5.39-7.82c13.24,0.31,26.49,0.27,39.74,0.01c5.24-0.1,8.13,1.86,9.8,6.77c3.7,10.86,9.89,20.39,16.6,29.59    c23.25,31.87,61.32,42.99,95.35,27.08c4.34-2.03,6.64-2.34,7.86-1.15c0.18,0.17,0.32,0.4,0.45,0.63v5v5.37    c-0.15,21.65-0.07,43.31-0.02,64.97c0,0.82-0.06,1.69,0.02,2.49c0.15,1.48,0.79,2.72,3.24,2.91c3.37,0.26,4-1.65,4.42-4.41    c1.61-10.71,8.49-16.06,18.68-17.88c6.75-1.21,13.56-2.14,20.21-3.75c11.34-2.75,15.6-8.19,15.77-19.78    c0.17-11.03,0.02-22.07,0.1-33.1c0.01-1.87-0.87-4.36,1.08-5.45c2.04-1.13,3.49,1.2,4.99,2.2c14.49,9.66,29.84,11.4,46.28,5.73    c33.38-11.53,64.2-46.58,56.12-92.94C570.4,564.87,499.91,545.33,468.22,568.76L468.22,568.76z"/>
    </g>
    <g>
      <path d="M1116.71,647.79c-1.5,10.45-1.14,21.01-1.04,31.55c0.06,6.11,0.54,12.24-0.67,18.32c-1.98,9.9-8.67,13.25-17.87,8.88    c-0.44-0.21-0.87-0.45-1.3-0.69c-14.09-7.94-27.9-43.37-22.98-58.82c2.14-6.7,6.82-10.66,13.44-12.27    c5.23-1.28,10.56-2.23,15.4-1.78c1.34,0,2.08-0.01,2.81,0C1118.36,633.2,1118.73,633.85,1116.71,647.79L1116.71,647.79z     M1216.77,683.48c-3.15-3.22-4.73,0.35-6.67,1.67c-9.47,6.41-18.37,5.64-24.62-2.76c-3.67-4.93-5.79-10.61-6.18-16.95    c-0.69-10.92,2.34-21.35,3.81-31.98c3.78-27.32-6.6-52.14-28.59-64.42c-23.08-12.88-47.29-12.96-71.61-3.36    c-9.33,3.68-18.24,8.47-27.64,11.91c-14.11,5.15-18.99,2.24-22.16-12.26c-0.61-2.8-1.59-4.42-4.73-4.34    c-2.94,0.07-3.73,1.82-3.97,4.24c-1.32,13.73-1.92,27.45,2.93,40.69c3.13,8.55,8.91,14.45,18.05,16.75    c18.8,4.74,31.71-2.11,37.8-20.53c2.69-8.13,4.66-16.49,7.34-24.62c2.51-7.6,8.37-10.35,16.08-10.01    c7.44,0.33,10.61,5.12,12.52,11.43c4.18,13.78,2.51,27.63,0.88,41.55c-0.6,5.21-2.58,7-7.97,6.6c-15.9-1.18-31.85-1.15-47.63,1.46    c-15.4,2.54-30.51,6.29-41.11,18.99c-18.19,21.79-7.37,54.31,21.45,64.27c17.14,5.92,35.02,7.24,52.98,5.77    c10.81-0.89,21-3.89,25.15-17.75c10.88,14.61,24.65,19.74,40.85,17.57c20.14-2.7,37.14-11.96,51.08-26.71    C1216.58,688.8,1220.18,686.97,1216.77,683.48L1216.77,683.48z"/>
    </g>
    <g>
      <path d="M726.1,684.64c0.2,11.64-4.47,17.04-12.05,20.34c-6.86,2.98-12.47,0.79-17.91-3.9c-27.95-24.09-45.62-55.32-61.31-87.91    c-3.4-7.06-5.73-14.64-5.82-22.62c-0.16-15.32,12.64-23.12,26.21-15.85c11.09,5.94,18.69,15.67,26.28,25.29    c12.75,16.14,23.21,33.9,32.72,51.94C719.93,662.76,727.06,674.08,726.1,684.64L726.1,684.64z M718.59,567.66    c-19.21-8.1-39.29-10.63-60.03-6.9c-70.33,12.68-79.63,84.67-53.89,122.8c17.39,25.77,43.36,34.57,73.33,35.24    c12.36-0.93,24.52-2.61,36.78-7.32c18.3-7.03,31.05-19.05,40.03-35.48c11.53-21.09,10.24-43.64,3.56-65.58    C752.21,590.22,738.07,575.87,718.59,567.66L718.59,567.66z"/>
    </g>
    <g>
      <path d="M924.56,561.08c-2.13-0.08-3.88,0.24-4.29,2.85c-0.37,2.42-0.74,4.87-1.47,7.19c-2.56,8.13-10.26,11.12-17.48,6.59    c-3.07-1.93-5.77-4.54-8.41-7.07c-5.25-5.04-11.29-8.41-18.42-10.12c-15.74-3.77-29.52,0.18-41.97,10.03    c-6.37,5.04-13.02,9.6-21.07,11.62c-16.44,4.12-25.62-0.6-28.74-14.65c-0.62-2.77,0.24-7.17-4.92-6.35    c-4.52,0.72-2.9,4.54-2.91,7.12c-0.12,23.53-0.07,47.05-0.07,70.58s0.19,47.05-0.13,70.58c-0.08,5.95,1.89,7.49,7.56,7.37    c15.92-0.33,31.86-0.47,47.77,0.05c6.74,0.22,8.1-2.08,8.04-8.34c-0.35-39.45-0.39-78.91-0.32-118.36    c0.01-6.14-1.07-13.49,6.91-16.08c5.43-1.77,10.06,2.84,13.69,12.69c2.87,7.8,4.69,16,9.14,23.18    c11.69,18.83,41.97,19.16,53.23,0.06c8.29-14.06,8.27-29.93,7.09-45.73C927.64,562.24,926.64,561.15,924.56,561.08L924.56,561.08z    "/>
    </g>
    <g>
      <path d="M992.14,599.73c-4.01-1.7-8.4-2.78-12.72-3.39c-13.58-1.9-27.11-3.79-38.43-13.15c-0.52,1.28-1,1.91-1,2.54    c-0.06,41.92-0.04,83.84-0.16,125.76c-0.01,4.4,2.06,5.27,5.89,5.24c17.16-0.12,34.32-0.13,51.48,0c3.9,0.03,5.8-0.99,5.78-5.33    c-0.14-32.12-0.08-64.23-0.17-96.35C1002.79,607.62,998.72,602.51,992.14,599.73L992.14,599.73z"/>
    </g>
    <g>
      <path d="M980.29,520.5c-3.63-0.15-7.29,0.36-10.24,0.53c-4.59-0.26-8.38-0.69-12.28,0.63c-16.98,5.74-26.29,23.16-21.75,41.17    c5.78,22.99,36.13,33.28,57.59,19.49c11.3-7.26,13.82-17.8,14.04-30.83C1007.87,538.5,994.06,521.08,980.29,520.5L980.29,520.5z"/>
    </g>
    <g>
      <path class="st5" d="M688.81,390.68c-0.02-0.31-0.08-0.61-0.43-0.69c-0.53-0.12-0.97-0.04-1.03,0.62    c-0.02,0.19-0.14,0.59,0.2,0.48C687.97,390.97,688.56,391.3,688.81,390.68L688.81,390.68z M683.17,418.86    c0.54,0.36-0.01,1.46,1.04,1.46c0.5,0,0.38-0.32,0.41-0.59C684.74,418.64,683.82,418.97,683.17,418.86L683.17,418.86z     M685.89,407.31c0.8-0.07,1.06-0.54,1.1-1.12c0.02-0.34-0.13-0.95-0.51-0.74c-0.46,0.26-0.78,0.85-1.02,1.36    C685.33,407.1,685.7,407.29,685.89,407.31L685.89,407.31z M690.58,371.51c-0.39-0.24-0.25-0.94-0.85-1.01    c-0.54-0.06-0.96,0.08-1,0.74c-0.04,0.59,0.29,0.74,0.78,0.69C689.89,371.9,690.39,372.13,690.58,371.51L690.58,371.51z     M694.58,396.31c-1.36-1.65-1.36-1.65-2.87-0.11C692.62,396.8,693.39,395.81,694.58,396.31L694.58,396.31z M685.53,422.6    c-0.66-1.82-1.79-1.37-2.91-1.08c-0.36,0.09-0.51,0.25-0.52,0.6c0,0.42,0.28,0.48,0.6,0.48    C683.61,422.6,684.52,422.6,685.53,422.6L685.53,422.6z M686.46,393.2c-0.03-0.05-0.18-0.42-0.28-0.41    c-1.15,0.15-2.33-0.68-3.45,0.03c-0.42,0.27-0.36,0.74-0.1,1.12c0.2,0.29,0.34,0.64,0.91,0.39c0.7-0.31,1.48-0.48,2.28-0.39    C686.22,393.98,686.54,393.91,686.46,393.2L686.46,393.2z M674.5,401.4c-0.77,0.87-0.8,1.66,0.07,2.48    c1.1,1.03,1.39,1.01,4.4-0.65c-0.61-0.66-1.2-1.32-1.76-1.92c-0.99,0.44-0.41,2.1-1.58,2.03    C674.75,403.28,674.73,402.19,674.5,401.4L674.5,401.4z M672.97,384.25c0-4.05,0-8.11,0-12.16c0.81,0.12,1.62,0.3,2.59,0.11    c-0.83-0.67-1.41-1.54-2.59-1.34c0-1.11,0-2.22,0-3.33c0.39,0.02,0.93-0.32,1.12,0.24c0.53,1.54,1.95,1.63,3.08,2.16    c0.49-1-0.53-2.21,0.66-2.94c0.6-0.37,1.32-0.92,0.85-1.49c-0.35-0.43-1.38-0.39-1.97,0.26c-1.14,1.24-2.39,1.36-3.74,0.35    c0-1.25,0-2.49,0-3.74c0.85-0.21,1.43-0.63,1.4-1.62c-0.05-1.33-0.08-2.58,1.94-1.83c0.36,0.13,1.03-0.25,1.23-0.88    c0.19-0.58-0.23-0.67-0.59-0.92c-0.53-0.38-0.97-0.89-1.46-1.34c-0.87-0.79-0.84-2.24,0.06-2.96c1.22-0.96,3.1-0.38,4.52,1.41    c0.29-1.26,2.52-1.04,2.16-2.79c-0.47-0.32-1.24,0.08-1.57-0.66c1.09-0.12,2-1.57,3.22-0.13c0.05-0.51,0.13-0.82,0.1-1.11    c-0.07-0.65-0.6-1.62,0.28-1.75c0.69-0.1,1.6,0.54,1.79,1.5c0.1,0.52-0.1,1.03-0.22,1.56c-0.29,1.24-1.87,0.95-2.07,1.7    c-0.49,1.87-2.03,2.27-3.51,2.86c0.66,1.16,1.68,1.73,2.6,2.38c0.51,0.36,1.26,0.4,1.69-0.02c0.34-0.32,0.54-0.89,0.49-1.49    c-0.07-0.88-1.34-0.19-1.32-1.11c0.42-0.21,0.82-0.48,1.27-0.63c0.47-0.16,0.82-0.74,1.51-0.42c0,0.85,0.03,1.7-0.01,2.56    c-0.04,0.96,0.22,1.28,1.26,0.95c0.86-0.28,1.62-0.08,2.38,0.75c0.69,0.75,1.77,1.91,3.05,0.26c0.64-0.83,1.74-0.24,2.43,0.28    c0.62,0.47,0.83,1.29,0.4,2.04c-0.43,0.75-0.86,1.32-2.01,0.83c-1.17-0.49-2.51-0.63-3.73,0.19c-0.3,0.2-0.91-0.03-0.83,0.66    c0.05,0.49,0.33,0.75,0.8,0.85c0.46,0.1,0.91,0.32,1.37,0.35c0.73,0.06,1.24,0.35,1.08,1.11c-0.21,1.05-0.92,0.58-1.53,0.39    c-1.68-0.51-2.52,0.15-2.46,1.93c0.02,0.44,0.09,0.88,0.14,1.43c-0.62-0.12-0.6-0.67-0.88-0.92c-0.36-0.33-0.82-0.53-1.3-0.38    c-0.32,0.1-0.41,0.46-0.27,0.77c0.21,0.46,0.25,1.3,0.96,1.1c1.28-0.36,2.47-0.23,3.69,0.16c1.54,0.49,1.57-1.34,2.47-1.69    c2.08-0.81,0.6-2.63,1.22-3.82c0.01-0.02-0.93-0.34-0.19-0.75c0.27-0.15,1.05-0.28,1.06,0.28c0.01,0.99,0.84,0.81,1.27,0.96    c0.58,0.2,1.29,0.1,1.94,0.01c0.27-0.04,0.18-0.46,0.05-0.62c-0.49-0.56-1.12-0.3-1.71-0.21c-0.38,0.05-0.79,0.08-0.99-0.26    c-0.3-0.52,0.24-0.74,0.51-1.03c0.62-0.65,0.96-1.94,1.29-2.15c1.23-0.77,2.02-1.73,2.92-2.8c0.38-0.45,1.84-0.84,2.84-1.19    c0.56,4.69,0.36,9.41,0.46,14.11c0.03,1.29-0.81,2.45-0.41,3.75c-0.43,1.24-2.11,1.02-2.58,2.2c-0.14,0.35-0.59,0.8-0.12,1.1    c0.43,0.27,0.65-0.07,0.86-0.56c0.27-0.62,0.94-1.21,1.6-1.04c0.55,0.15,0.25,0.97,0.25,1.48c0.02,7.83,0.01,15.67,0.01,23.5    c0,8.12-0.01,16.23,0.02,24.35c0,0.62-0.34,1.33,0.29,1.87c0.78,0.53,1.66,0.31,2.5,0.31c34.02,0.01,68.04,0.01,102.07,0.01    c2.61,0,2.61,0,2.61,2.57c0,8.75,0,17.5,0,26.25c0,2.5,0,2.5-2.45,2.5c-73.86,0-147.71,0-221.57,0c-6.55,0-13.1-0.05-19.64,0.04    c-1.57,0.02-1.94-0.5-1.93-1.99c0.06-8.99,0.08-17.99-0.01-26.98c-0.02-1.83,0.42-2.37,2.32-2.37    c34.08,0.06,68.17,0.05,102.25,0.04c2.98,0,2.63,0.25,2.63-2.67c0-1.89-0.05-3.78,0.44-5.63c1.54-0.57,1.05-1.61,0.56-2.63    c1.15-0.18,2.09,0.02,1.98,1.4c-0.11,1.32,0.43,1.74,1.95,1.44c-0.93,1.1-0.69,2.06,0.27,2.32c0.94,0.25,1.12-0.93,1.32-1.58    c0.71-2.29-0.21-4.03-2.54-5.12c-0.57-0.27-1.23-1.03-0.93-1.34c0.98-1.02-0.34-1.25-0.46-1.85c-0.69,0.33-1.01,0.77-0.84,1.64    c0.11,0.57-0.39,1.3-1,1.26c-0.78-0.05-0.47-0.87-0.45-1.35c0.06-1.92,0.26-3.89,0.16-5.76c-0.24-4.79-0.01-9.58-0.21-14.36    c-0.08-1.89,0.09-3.47,2.4-4.07c-0.4-0.28-0.57-0.48-0.77-0.52c-0.57-0.12-1.47,0.51-1.56-0.62c-0.06-0.75-0.4-1.83,0.23-2.18    c0.44-0.24,1.45-0.43,2.21,0.35c0.59,0.6,1.45,1.3,2.53,0.85C675.39,382.82,675.39,382.82,672.97,384.25L672.97,384.25z"/>
    </g>
    <g>
      <path d="M701.18,313.07c0.02-0.41-0.02-0.71-0.57-0.6c-0.57,0.11-1.03,0.45-1.07,0.96c-0.02,0.25,0.54,0.78,0.84,0.78    C701.02,314.21,701.25,313.68,701.18,313.07L701.18,313.07z M679.94,317.05c-0.47,0.04-1.08,0.03-0.96,0.69    c0.05,0.29,0.08,1.01,0.63,0.89c0.49-0.11,0.88-0.56,1-1.12C680.73,316.88,680.27,317.04,679.94,317.05L679.94,317.05z     M696.81,330.38c0.59,0.52,1.49,0.16,1.71,1.12c0.03,0.12,0.59,0.03,0.73-0.28c0.33-0.75-0.96-0.86-0.68-1.62    C697.74,329.3,697.57,330.45,696.81,330.38L696.81,330.38z M693.63,353.89c0.23,0.02,0.47,0.03,0.7,0.06    c0.98,0.13,1.3-0.43,1.28-1.27c-0.01-0.43,0.25-1.13-0.44-1.17c-0.83-0.06-0.93,0.79-1.21,1.36    C693.8,353.17,693.74,353.53,693.63,353.89L693.63,353.89z M693.97,327.28c-0.5-0.58-0.63-1.6-1.72-1.58    c-0.44,0.01-0.92,0.09-0.83,0.68c0.15,0.98,1.01,1.19,1.78,1.43C693.57,327.94,693.9,327.78,693.97,327.28L693.97,327.28z     M679.12,345.62c-1.61-0.35-2.08,0.93-2.8,1.69c-0.21,0.22-0.11,1.13,0.15,1.34c0.57,0.44,0.79-0.28,1.05-0.64    C678.05,347.28,678.53,346.51,679.12,345.62L679.12,345.62z M687.91,331.19c0.72,0.01,1.82-0.1,1.74-0.71    c-0.08-0.62-1.07-1.17-1.98-1.12c-0.58,0.03-1.46-0.11-1.45,0.65C686.23,330.9,687.02,331.25,687.91,331.19L687.91,331.19z     M673.74,332.43c-0.29,1.64,0.33,2.52,1.57,3.24c0.9,0.52,0.95,0.13,0.89-0.54C676.08,333.64,675.02,332.98,673.74,332.43    L673.74,332.43z M679.75,336.26c0.62-0.16,0.69-0.57,0.87-0.96c0.46-0.94,0.97-1.85,1.54-2.73c0.16-0.25,1,0.38,0.85-0.4    c-0.1-0.52-0.32-1.23-1.08-1.32c-0.48-0.06-0.9-0.05-1.32-0.46c-0.71-0.71-1.05,0.03-0.99,0.54    C679.83,332.68,678.85,334.45,679.75,336.26L679.75,336.26z M686.11,336.56c0.08,0.4-0.06,0.67-0.39,0.76    c-0.47,0.11-0.69-0.24-0.68-0.61c0.02-0.85-0.24-1.57-0.86-2.12c-0.28-0.25-0.33-1.11-1.04-0.52c-0.37,0.31-0.69,0.56-0.46,1.2    c0.31,0.88,0.68,1.78,0.54,2.77c-0.07,0.5,0.09,0.99,0.62,1.19c0.54,0.21,0.89-0.26,1.31-0.46c0.53-0.25,0.56-1.17,1.34-1.08    c1.52,0.17,1.98-0.98,2.7-1.95c0.84-1.14,0.1-1.86-0.57-2.41c-1.01-0.84-1.78,0.07-2.13,0.85    C686.17,334.89,685.16,335.66,686.11,336.56L686.11,336.56z M698.49,344.82c-1.23,0.45-2.77,0.03-3.03,1.85    c-0.06,0.42-0.79,0.49-1.1,0.17c-0.55-0.56,0.18-2.61,0.96-3.08c1.04-0.63,2.52-1.01,2.01-2.75c-0.17-0.6-0.55-1.14-0.87-1.77    c-0.77,0.54-1.52,1.07-2.52,1.77c0.29-1.31,0.72-2.58-0.59-3.01c-0.81-0.27-1.04-0.51-1-1.29c0.04-0.73-0.42-1.12-1.15-1.1    c-0.95,0.02-0.71,0.57-0.47,1.11c0.25,0.54-0.36,0.26-0.47,0.48c-0.33,0.7-1.2,1.2-0.58,2.24c0.31,0.52-0.1,1.14-0.74,1.3    c-0.93,0.23-1.77-0.42-2.52,1.33c-0.63,1.49-0.29,2,0.22,2.99c0.55-0.52,0.71-1.11,0.64-1.72c-0.06-0.5,0.07-0.79,0.46-1.08    c1.36-1.01,3.47-0.54,4.46-2.28l0.43,0.07c0.18,0.99,1.42,1.78,0.82,2.85c-0.63,1.12-1.09-0.47-1.76-0.32    c-0.47,0.11-1.11-0.61-1.4,0.11c-0.24,0.58-0.28,1.28,0.46,1.77c0.4,0.26,0.9,0.41,1.08,1.09c0.4,1.48,0.31,3.42,2.59,3.6    c0.12,0.01,0.23,0.33,0.35,0.52c0.37-0.49-0.11-1.15,0.54-1.65c0.51,0.89,1.21,0.76,2.01,0.35    C698.84,347.58,698.74,346.3,698.49,344.82L698.49,344.82z M703.73,356.19c-1,0.35-2.47,0.74-2.84,1.19    c-0.9,1.07-1.69,2.03-2.92,2.8c-0.33,0.21-0.67,1.49-1.29,2.15c-0.27,0.28-0.81,0.51-0.51,1.03c0.2,0.34,0.61,0.31,0.99,0.26    c0.59-0.08,1.22-0.34,1.71,0.21c0.13,0.15,0.22,0.58-0.05,0.62c-0.64,0.09-1.35,0.18-1.94-0.01c-0.43-0.15-1.26,0.03-1.27-0.96    c0-0.56-0.78-0.42-1.06-0.28c-0.75,0.41,0.2,0.72,0.19,0.75c-0.62,1.19,0.86,3.01-1.22,3.82c-0.9,0.35-0.93,2.17-2.47,1.69    c-1.23-0.39-2.41-0.51-3.69-0.16c-0.71,0.2-0.75-0.64-0.96-1.1c-0.14-0.31-0.05-0.67,0.27-0.77c0.48-0.15,0.94,0.05,1.3,0.38    c0.28,0.25,0.26,0.8,0.88,0.92c-0.06-0.55-0.13-0.99-0.14-1.43c-0.06-1.78,0.78-2.44,2.46-1.93c0.61,0.19,1.32,0.66,1.53-0.39    c0.15-0.76-0.35-1.05-1.08-1.11c-0.46-0.03-0.91-0.25-1.37-0.35c-0.47-0.11-0.75-0.37-0.8-0.85c-0.07-0.69,0.53-0.46,0.83-0.66    c1.23-0.81,2.56-0.68,3.73-0.19c1.15,0.49,1.58-0.08,2.01-0.83c0.43-0.75,0.22-1.58-0.4-2.04c-0.69-0.52-1.79-1.1-2.43-0.28    c-1.28,1.65-2.36,0.49-3.05-0.26c-0.77-0.83-1.52-1.03-2.38-0.75c-1.04,0.33-1.3,0.01-1.26-0.95c0.03-0.85,0.01-1.71,0.01-2.56    c-0.69-0.32-1.04,0.27-1.51,0.42c-0.44,0.15-0.85,0.42-1.27,0.63c-0.02,0.92,1.24,0.23,1.32,1.11c0.05,0.6-0.15,1.17-0.49,1.49    c-0.44,0.42-1.19,0.38-1.69,0.02c-0.91-0.66-1.93-1.22-2.6-2.38c1.48-0.59,3.02-0.99,3.51-2.86c0.2-0.75,1.78-0.46,2.07-1.7    c0.12-0.53,0.32-1.04,0.22-1.56c-0.19-0.96-1.1-1.6-1.79-1.5c-0.88,0.13-0.36,1.11-0.28,1.75c0.03,0.29-0.05,0.6-0.1,1.11    c-1.22-1.44-2.13,0.02-3.22,0.13c0.33,0.74,1.1,0.34,1.57,0.66c0.36,1.76-1.87,1.53-2.16,2.79c-1.42-1.78-3.3-2.37-4.52-1.41    c-0.9,0.71-0.92,2.16-0.06,2.96c0.49,0.45,0.93,0.96,1.46,1.34c0.36,0.25,0.78,0.34,0.59,0.92c-0.2,0.62-0.88,1.01-1.23,0.88    c-2.02-0.76-1.99,0.5-1.94,1.83c0.04,0.99-0.55,1.41-1.4,1.62c0-1.58,0-3.16-0.01-4.74c0.42,0.23,0.82,0.51,1.27,0.67    c0.75,0.27,1.45-0.11,1.65-0.72c0.26-0.83-0.64-0.54-1.05-0.71c-0.61-0.25-1.24-0.46-1.86-0.69c0-0.36,0-0.72,0.01-1.08    c1.67-2.06,1.67-2.06-0.03-3.33c0.58-1.23-0.03-2.46-0.01-3.69c0.11-6.04-0.26-12.08,0.16-18.12c0.06-0.83-0.17-1.77-0.17-2.66    c-0.01-51.02-0.01-102.05-0.01-153.07c0-8.99,0.02-17.98,0.03-26.97c0.01-13.1,0.05-26.2,0-39.3c-0.01-1.47,0.42-1.8,1.83-1.79    c9.24,0.07,18.48,0.09,27.71,0.04c1.39-0.01,1.74,0.36,1.71,1.74c-0.09,5.14-0.03,10.27-0.03,15.41c0,1.63-0.18,3.24-0.3,4.86    c-0.19,2.72,0.3,5.46,0.3,8.21c-0.03,58.18,0,116.36-0.04,174.54c0,2.54,0.12,5.07,0.05,7.6c-0.07,2.75-0.01,5.51-0.02,8.26    c-0.01,2.69-0.05,5.38-0.07,8.07c-0.6,0.18-1.5-0.64-1.8,0.51c-0.48,1.83,0.16,3.26,1.81,4.17c0.01,4.29,0.02,8.57,0.03,12.86    c-1.74,0.05-3.42-0.09-5.03-0.96c-1.01-0.55-2.17,0.53-2.1,1.02c0.13,0.86-0.51,1.68-0.05,2.5c0.71-0.08,1.04-0.87,1.83-0.74    c0.51,0.08,1.02,0.04,0.97,0.72c-0.12,1.51,0.78,1.29,1.7,1.05c0.77-0.2,1.54-0.38,2.34-0.22    C703.8,355.97,703.78,356.08,703.73,356.19L703.73,356.19z"/>
    </g>
    <g>
      <path d="M672.97,384.25c2.41-1.42,2.41-1.42,5.22,2.7c-1.08,0.45-1.94-0.25-2.53-0.85c-0.76-0.78-1.77-0.6-2.21-0.35    c-0.63,0.35-0.29,1.43-0.23,2.18c0.09,1.13,1,0.49,1.56,0.62c0.21,0.05,0.38,0.25,0.77,0.52c-2.31,0.6-2.48,2.18-2.4,4.07    c0.2,4.78-0.03,9.57,0.21,14.36c0.09,1.87-0.1,3.84-0.16,5.76c-0.02,0.47-0.33,1.3,0.45,1.35c0.6,0.04,1.11-0.69,1-1.26    c-0.17-0.87,0.15-1.3,0.84-1.64c0.12,0.6,1.43,0.82,0.46,1.85c-0.3,0.32,0.35,1.07,0.93,1.34c2.32,1.09,3.24,2.82,2.54,5.12    c-0.2,0.65-0.38,1.83-1.32,1.58c-0.96-0.26-1.2-1.22-0.27-2.32c-1.52,0.3-2.07-0.13-1.95-1.44c0.12-1.38-0.82-1.58-1.98-1.4    c0.49,1.02,0.99,2.06-0.56,2.63c-0.48-0.76-0.41-1.62-0.41-2.46C672.95,405.8,672.96,395.02,672.97,384.25L672.97,384.25z"/>
    </g>
    <g>
      <path class="st5" d="M703.81,355.85c-0.8-0.16-1.57,0.03-2.34,0.22c-0.91,0.23-1.82,0.45-1.7-1.05c0.05-0.68-0.45-0.64-0.97-0.72    c-0.79-0.13-1.12,0.66-1.83,0.74c-0.46-0.82,0.18-1.64,0.05-2.5c-0.08-0.49,1.09-1.56,2.1-1.02c1.6,0.87,3.28,1,5.03,0.96    C704.22,353.62,704.6,354.79,703.81,355.85L703.81,355.85z"/>
    </g>
    <g>
      <path d="M704.13,426.96c-0.63-0.54-0.29-1.25-0.29-1.87c-0.03-8.11-0.02-16.23-0.02-24.35c0-7.83,0.01-15.67-0.01-23.5    c0-0.51,0.3-1.33-0.25-1.48c-0.66-0.18-1.34,0.42-1.6,1.04c-0.21,0.49-0.43,0.83-0.86,0.56c-0.47-0.3-0.02-0.75,0.12-1.1    c0.47-1.18,2.15-0.96,2.58-2.2c0.6,0.29,0.38,0.84,0.38,1.29C704.16,392.55,704.14,409.76,704.13,426.96L704.13,426.96z"/>
    </g>
    <g>
      <path d="M672.99,366.11c1.35,1.01,2.6,0.89,3.74-0.35c0.59-0.65,1.62-0.68,1.97-0.26c0.47,0.57-0.24,1.12-0.85,1.49    c-1.19,0.73-0.17,1.94-0.66,2.94c-1.13-0.53-2.55-0.63-3.08-2.16c-0.19-0.56-0.73-0.22-1.12-0.24    C672.98,367.06,672.99,366.58,672.99,366.11L672.99,366.11z"/>
    </g>
    <g>
      <path class="st5" d="M704.11,339.61c-1.66-0.91-2.29-2.35-1.81-4.17c0.3-1.16,1.2-0.33,1.8-0.51    C704.11,336.49,704.11,338.05,704.11,339.61L704.11,339.61z"/>
    </g>
    <g>
      <path class="st5" d="M672.98,356.19c0.62,0.23,1.25,0.44,1.86,0.69c0.41,0.17,1.32-0.12,1.05,0.71c-0.19,0.6-0.9,0.99-1.65,0.72    c-0.44-0.16-0.85-0.45-1.27-0.67C672.98,357.16,672.98,356.68,672.98,356.19L672.98,356.19z"/>
    </g>
    <g>
      <path class="st5" d="M672.96,351.79c1.7,1.27,1.7,1.27,0.03,3.33C672.85,354.01,672.8,352.9,672.96,351.79L672.96,351.79z"/>
    </g>
    <g>
      <path d="M672.99,370.86c1.18-0.2,1.76,0.67,2.59,1.34c-0.97,0.19-1.78,0.01-2.59-0.11C672.98,371.68,672.98,371.27,672.99,370.86    L672.99,370.86z"/>
    </g>
    <g>
      <path d="M674.5,401.4c0.23,0.79,0.25,1.87,1.13,1.93c1.17,0.07,0.59-1.58,1.58-2.03c0.55,0.61,1.15,1.26,1.76,1.92    c-3.01,1.66-3.31,1.68-4.4,0.65C673.7,403.07,673.73,402.28,674.5,401.4L674.5,401.4z"/>
    </g>
    <g>
      <path d="M686.46,393.2c0.09,0.71-0.23,0.78-0.64,0.74c-0.8-0.09-1.58,0.08-2.28,0.39c-0.57,0.26-0.71-0.09-0.91-0.39    c-0.26-0.38-0.32-0.85,0.1-1.12c1.12-0.71,2.29,0.12,3.45-0.03C686.28,392.78,686.42,393.15,686.46,393.2L686.46,393.2z"/>
    </g>
    <g>
      <path d="M685.53,422.6c-1.02,0-1.92,0-2.83,0c-0.32,0-0.6-0.07-0.6-0.48c0-0.35,0.15-0.5,0.52-0.6    C683.74,421.23,684.87,420.78,685.53,422.6L685.53,422.6z"/>
    </g>
    <g>
      <path d="M694.58,396.31c-1.18-0.5-1.96,0.49-2.87-0.11C693.22,394.67,693.22,394.67,694.58,396.31L694.58,396.31z"/>
    </g>
    <g>
      <path d="M690.58,371.51c-0.18,0.63-0.68,0.39-1.07,0.43c-0.49,0.05-0.82-0.1-0.78-0.69c0.04-0.66,0.46-0.81,1-0.74    C690.32,370.57,690.19,371.26,690.58,371.51L690.58,371.51z"/>
    </g>
    <g>
      <path d="M685.89,407.31c-0.19-0.02-0.56-0.21-0.43-0.5c0.24-0.51,0.56-1.11,1.02-1.36c0.38-0.21,0.53,0.4,0.51,0.74    C686.95,406.77,686.69,407.24,685.89,407.31L685.89,407.31z"/>
    </g>
    <g>
      <path d="M683.17,418.86c0.65,0.1,1.57-0.23,1.45,0.87c-0.03,0.27,0.09,0.59-0.41,0.59C683.16,420.33,683.71,419.23,683.17,418.86    L683.17,418.86z"/>
    </g>
    <g>
      <path d="M688.81,390.68c-0.25,0.61-0.84,0.28-1.26,0.41c-0.34,0.11-0.22-0.29-0.2-0.48c0.06-0.66,0.5-0.74,1.03-0.62    C688.74,390.07,688.79,390.38,688.81,390.68L688.81,390.68z"/>
    </g>
    <g>
      <path class="st5" d="M698.49,344.82c0.25,1.48,0.35,2.76-1.16,3.55c-0.79,0.41-1.5,0.54-2.01-0.35c-0.65,0.5-0.17,1.16-0.54,1.65    c-0.12-0.19-0.22-0.51-0.35-0.52c-2.28-0.18-2.19-2.12-2.59-3.6c-0.18-0.68-0.68-0.82-1.08-1.09c-0.74-0.49-0.69-1.19-0.46-1.77    c0.29-0.72,0.93-0.01,1.4-0.11c0.66-0.15,1.12,1.43,1.76,0.32c0.6-1.06-0.64-1.86-0.82-2.85l-0.43-0.07    c-0.99,1.73-3.1,1.27-4.46,2.28c-0.39,0.29-0.52,0.58-0.46,1.08c0.07,0.61-0.08,1.21-0.64,1.72c-0.51-0.99-0.85-1.5-0.22-2.99    c0.74-1.75,1.58-1.1,2.52-1.33c0.64-0.16,1.05-0.77,0.74-1.3c-0.61-1.04,0.25-1.53,0.58-2.24c0.1-0.22,0.71,0.06,0.47-0.48    c-0.24-0.54-0.49-1.09,0.47-1.11c0.73-0.02,1.19,0.37,1.15,1.1c-0.04,0.78,0.19,1.02,1,1.29c1.31,0.43,0.88,1.7,0.59,3.01    c1-0.7,1.75-1.23,2.52-1.77c0.32,0.64,0.7,1.18,0.87,1.77c0.5,1.73-0.97,2.12-2.01,2.75c-0.78,0.47-1.51,2.52-0.96,3.08    c0.31,0.31,1.04,0.24,1.1-0.17C695.72,344.85,697.26,345.27,698.49,344.82L698.49,344.82z"/>
    </g>
    <g>
      <path class="st5" d="M686.11,336.56c-0.95-0.91,0.06-1.67,0.38-2.39c0.35-0.78,1.11-1.69,2.13-0.85c0.67,0.55,1.41,1.27,0.57,2.41    c-0.72,0.97-1.18,2.12-2.7,1.95c-0.78-0.09-0.81,0.83-1.34,1.08c-0.42,0.2-0.77,0.67-1.31,0.46c-0.53-0.21-0.69-0.69-0.62-1.19    c0.14-1-0.23-1.89-0.54-2.77c-0.23-0.64,0.09-0.9,0.46-1.2c0.71-0.58,0.76,0.27,1.04,0.52c0.62,0.55,0.87,1.28,0.86,2.12    c-0.01,0.37,0.21,0.72,0.68,0.61C686.05,337.24,686.19,336.97,686.11,336.56L686.11,336.56z"/>
    </g>
    <g>
      <path class="st5" d="M679.75,336.26c-0.9-1.81,0.07-3.58-0.13-5.34c-0.06-0.51,0.28-1.25,0.99-0.54c0.41,0.41,0.84,0.4,1.32,0.46    c0.76,0.09,0.98,0.8,1.08,1.32c0.15,0.78-0.69,0.15-0.85,0.4c-0.56,0.88-1.08,1.79-1.54,2.73    C680.44,335.69,680.37,336.1,679.75,336.26L679.75,336.26z"/>
    </g>
    <g>
      <path class="st5" d="M673.74,332.43c1.28,0.55,2.34,1.21,2.47,2.7c0.05,0.67,0.01,1.06-0.89,0.54    C674.07,334.95,673.44,334.06,673.74,332.43L673.74,332.43z"/>
    </g>
    <g>
      <path class="st5" d="M687.91,331.19c-0.89,0.07-1.68-0.28-1.69-1.17c-0.01-0.76,0.87-0.62,1.45-0.65c0.91-0.05,1.9,0.49,1.98,1.12    C689.73,331.09,688.63,331.2,687.91,331.19L687.91,331.19z"/>
    </g>
    <g>
      <path class="st5" d="M679.12,345.62c-0.59,0.89-1.07,1.66-1.6,2.39c-0.26,0.35-0.48,1.08-1.05,0.64    c-0.26-0.21-0.36-1.12-0.15-1.34C677.04,346.55,677.5,345.27,679.12,345.62L679.12,345.62z"/>
    </g>
    <g>
      <path class="st5" d="M693.97,327.28c-0.08,0.5-0.4,0.66-0.78,0.54c-0.76-0.25-1.63-0.45-1.78-1.43c-0.09-0.59,0.4-0.67,0.83-0.68    C693.34,325.69,693.47,326.71,693.97,327.28L693.97,327.28z"/>
    </g>
    <g>
      <path class="st5" d="M693.63,353.89c0.11-0.37,0.18-0.72,0.33-1.03c0.28-0.57,0.38-1.41,1.21-1.36c0.69,0.05,0.42,0.75,0.44,1.17    c0.03,0.84-0.29,1.4-1.28,1.27C694.09,353.92,693.85,353.91,693.63,353.89L693.63,353.89z"/>
    </g>
    <g>
      <path class="st5" d="M696.81,330.38c0.77,0.07,0.93-1.08,1.76-0.79c-0.29,0.76,1,0.87,0.68,1.62c-0.14,0.31-0.7,0.41-0.73,0.28    C698.3,330.54,697.39,330.9,696.81,330.38L696.81,330.38z"/>
    </g>
    <g>
      <path class="st5" d="M679.94,317.05c0.33-0.01,0.79-0.17,0.66,0.46c-0.11,0.56-0.51,1.01-1,1.12c-0.55,0.12-0.57-0.6-0.63-0.89    C678.86,317.07,679.47,317.08,679.94,317.05L679.94,317.05z"/>
    </g>
    <g>
      <path class="st5" d="M701.18,313.07c0.07,0.61-0.16,1.14-0.79,1.14c-0.3,0-0.86-0.53-0.84-0.78c0.04-0.51,0.5-0.84,1.07-0.96    C701.16,312.36,701.2,312.66,701.18,313.07L701.18,313.07z"/>
    </g>
  </g>
</svg>