<?xml version="1.0" encoding="utf-8"?>
<!-- Generator: Adobe Illustrator 27.3.1, SVG Export Plug-In . SVG Version: 6.00 Build 0)  -->
<svg version="1.1" id="Layer_1" xmlns="http://www.w3.org/2000/svg" xmlns:xlink="http://www.w3.org/1999/xlink" x="0px" y="0px"
	 viewBox="0 0 545 783" style="enable-background:new 0 0 545 783;" xml:space="preserve">
<style type="text/css">
	.st0{fill:#FFFFFF;}
	.st1{fill:#9ECDCA;}
	.st2{fill:#231F20;}
	.st3{fill:#EC2027;}
	.st4{clip-path:url(#SVGID_00000060024483972013534230000008946617724268012463_);}
	.st5{fill:#B82025;}
	.st6{clip-path:url(#SVGID_00000128460759966384300130000006006189661910765184_);}
	.st7{clip-path:url(#SVGID_00000137089949469536411750000008397201503440925576_);}
	.st8{clip-path:url(#SVGID_00000163063712558752739580000009065811793597964962_);}
	.st9{clip-path:url(#SVGID_00000142133938980718088180000001516708823059880104_);}
	.st10{clip-path:url(#SVGID_00000037655408059586786500000009774886192597228982_);}
	.st11{clip-path:url(#SVGID_00000060710488394251325710000013579469920801758859_);}
	.st12{clip-path:url(#SVGID_00000074403019542104938610000011547127341887180197_);}
	.st13{fill:#B9020D;}
	.st14{fill:#238680;}
</style>
<g>
	<g>
		<path class="st1" d="M50.13,603.96c2.37,7.4,6.16,16.53,10.39,25.49c3.33,7.06,7.04,13.93,10.94,20.69
			c5.29,9.15,11.22,17.86,17.97,26.01c1.61,1.94,3.41,3.74,4.59,6.02c0.2,0.38,0.51,0.72,0.83,1.02c2.39,2.27,4.67,4.67,7.2,6.76
			c4.4,3.64,8.95,7.11,13.44,10.64c8.27,6.49,17.56,11.29,26.9,15.95c6.98,3.48,14.22,6.42,21.55,9.13
			c9.41,3.48,18.96,6.27,28.91,7.78c6.2,0.93,12.41,1.61,18.66,2.13c17.1,1.45,34.01,0.02,50.82-3.13
			c7.13-1.33,14.25-2.69,21.35-4.13c4.42-0.89,8.85-1.74,13.18-2.96c10.48-2.95,20.71-6.67,30.66-11.11
			c2.71-1.21,5.42-2.42,8.07-3.75c6.08-3.07,12.11-6.25,18.17-9.34c6.66-3.39,13.17-7.04,19.46-11.08
			c6.1-3.91,12.12-7.95,18.28-11.76c8.24-5.09,15.9-10.98,23.49-16.97c4.57-3.61,8.93-7.48,13.49-11.09
			c4.58-3.63,8.92-7.47,12.58-12.06c0.87-1.09,2-2.06,3.18-2.8c1.34-0.83,2.45-1.84,3.5-2.96c15.68-16.78,29.26-35.1,40.33-55.25
			c7.5-13.64,13.52-27.88,17.19-43.06c5.85-24.2,6.73-48.47,1.06-72.83c-3.61-15.5-9.83-29.79-19.3-42.66
			c-9.88-13.42-21.73-24.76-35.36-34.26c-5.41-3.77-10.97-7.32-16.57-10.8c-11.76-7.31-23.71-14.33-35.23-22.03
			c-10.07-6.73-19.8-13.88-28.57-22.27c-10.5-10.05-19.15-21.47-25.55-34.55c-5.01-10.23-8.29-21.06-10.77-32.14
			c-3.16-14.18-5.18-28.55-6.13-43.05c-0.65-9.87-1.16-19.75-1.84-29.62c-0.75-11.09-2.32-22.08-4.72-32.93
			c-2.14-9.68-5.11-19.1-8.63-28.37c-4.2-11.06-9.59-21.47-16.37-31.15c-7.95-11.34-17.23-21.39-28.77-29.19
			c-8.6-5.81-17.73-10.6-27.39-14.4c-8.64-3.4-17.56-5.67-26.81-6.57c-13.79-1.33-27.19,0.64-40.26,4.98
			c-8.89,2.95-17.26,7.05-25.38,11.74c-12.59,7.27-24.56,15.45-35.53,24.97C94.56,105.1,78.09,123.21,63.49,143
			c-1.63,2.21-3.13,4.52-4.52,6.89c-11.26,19.16-18.14,39.72-19.65,61.98c-1.1,16.29-0.2,32.5,1.92,48.67
			c1.65,12.64,3.02,25.31,4.47,37.98c0.41,3.6,0.54,7.24,1.06,10.82c0.74,5.14,1.02,10.27,0.63,15.45
			c-0.34,4.49-0.69,8.99-0.86,13.49c-0.29,7.58-0.84,15.14-1.81,22.67c-0.5,3.92-0.71,7.88-0.98,11.82
			c-0.33,4.82-0.49,9.66-0.9,14.48c-0.73,8.32-1.68,16.62-2.38,24.94c-0.9,10.73-1.57,21.48-2.47,32.21
			c-1.97,23.56-3.01,47.16-3.13,70.8c-0.06,11.11,0.37,22.2,1.87,33.22C39.2,566.68,43.6,584.48,50.13,603.96L50.13,603.96z"/>
	</g>
</g>
</svg>
