<?xml version="1.0" encoding="utf-8"?>
<svg version="1.1" id="Layer_1" x="0px" y="0px" viewBox="79.014 59.094 492.94 707.139" style="enable-background:new 0 0 643 824;" xmlns="http://www.w3.org/2000/svg">
  <style type="text/css">
	.st0{fill:#FFFFFF;}
	.st1{fill:#9ECDCA;}
	.st2{fill:#231F20;}
	.st3{fill:#EC2027;}
	.st4{clip-path:url(#SVGID_00000172405189081116632610000002965656319868695434_);}
	.st5{fill:#B82025;}
	.st6{clip-path:url(#SVGID_00000108307639469265201990000001466315264828165526_);}
	.st7{clip-path:url(#SVGID_00000132048850954705801770000006659099449260295051_);}
	.st8{clip-path:url(#SVGID_00000096042184184762181790000001024010837894717069_);}
	.st9{clip-path:url(#SVGID_00000062179681486025379380000010844396486269794714_);}
	.st10{clip-path:url(#SVGID_00000044162440695305147820000002625384135152024227_);}
	.st11{clip-path:url(#SVGID_00000137842348358341622760000007899653648044208042_);}
	.st12{clip-path:url(#SVGID_00000074438505918121662450000006967058478303215523_);}
	.st13{fill:#B9020D;}
	.st14{fill:#238680;}
</style>
  <g style="" transform="matrix(1, 0, 0, -1, 0, 823.98999)">
    <g>
      <path class="st0" d="M220.64,759.99l-0.1-0.02c-0.27-0.06-0.55-0.12-0.82-0.19c-0.45-0.11-0.86-0.21-1.21-0.24 c-10.15-0.82-19.95-2.97-29.11-6.42c-13.03-4.9-24.78-12.52-34.9-22.63c-11.07-11.05-20.22-23.79-27.2-37.85 c-4.34-8.74-7.58-18.48-9.91-29.78c-2.62-12.7-3.71-25.48-3.23-37.98c0.15-4.01,0.49-8.39,1.02-13.39 c0.6-5.62,1.25-10.67,1.99-15.41c1.84-11.75,4.75-23.35,8.63-34.5c2.55-7.32,5.29-14.66,7.93-21.77c1.15-3.08,2.3-6.16,3.43-9.25 c0.61-1.65,1.22-3.3,1.84-4.95c2.54-6.81,5.16-13.85,7.23-20.92c3.21-10.94,5.56-21.27,7.2-31.57c1.43-8.99,1.78-18.05,1.06-26.92 c-0.9-11.02-3.61-22.34-8.06-33.62c-3.58-9.08-8.11-18.13-13.47-26.91l-7.01-11.48c-5.6-9.16-11.14-18.24-16.67-27.33 c-6.7-11.03-11.57-20.44-15.32-29.64c-5.17-12.66-8.75-25.91-10.64-39.4c-0.35-2.49-0.55-5.01-0.74-7.45l-0.02-0.24 c-0.09-1.11-0.22-2.26-0.71-3.17l-0.3-0.56v-10.47l0.3-0.55c0.39-0.72,0.59-1.58,0.67-2.88c1.21-18.89,6.17-37.83,14.73-56.31 c8.92-19.24,20.74-36.43,35.12-51.08c7.02-7.14,15.09-14.03,25.39-21.68c24.85-18.43,52.52-32.19,82.24-40.89 c17.21-5.04,32.82-8.91,47.71-11.85c7.93-1.56,17.32-3.31,26.9-4.37c4.77-0.53,9.6-0.83,14.26-1.12l2.58-0.16 c2.64-0.17,5.31-0.29,7.9-0.41l0.3-0.01c1.69-0.08,3.38-0.16,5.08-0.25c0.16-0.01,0.45-0.09,0.72-0.16 c0.25-0.07,0.47-0.13,0.7-0.18l0.11-0.02l0.38-0.04l14.61,0.04l0.12,0.03c0.2,0.05,0.41,0.11,0.61,0.17 c0.19,0.06,0.37,0.12,0.5,0.13c9.67,0.57,19.08,2,28.68,3.54c3.76,0.61,7.49,1.49,11.1,2.34c1.19,0.28,2.39,0.57,3.59,0.84 c7.2,1.65,16.67,3.9,26.07,6.76c14.99,4.55,29.35,11.42,43.93,20.98c18.62,12.22,34.69,27.42,47.77,45.17 c3.73,5.06,7.6,10.46,12.17,16.98c5.53,7.9,9.65,16.36,12.96,23.6c0.48,1.05,0.81,2.09,1.14,3.1l0.15,0.47 c0.61,1.9,1.22,3.8,1.83,5.7l0.11,0.35c0.7,2.19,1.4,4.38,2.11,6.56c0.59,1.82,1.11,3.62,1,5.66c-0.08,1.55,0.26,3.14,0.61,4.63 c2.26,9.47,3.86,19.28,4.75,29.16c0.16,1.77,0.26,3.56,0.35,5.28c0.06,1.05,0.11,2.09,0.19,3.14c0.02,0.29,0.02,0.58,0.02,0.88 c0,0.24,0,0.68,0.04,0.8l0.42,0.61l-0.03,33.66l-0.02,0.1c-0.06,0.29-0.13,0.58-0.2,0.86c-0.1,0.41-0.2,0.79-0.2,1.05 c-0.22,11.09-1.82,21.9-3.35,31.01c-2.18,12.91-4.76,24.39-7.9,35.1c-4.06,13.85-9.45,27.82-16.48,42.72 c-11.63,24.67-25.07,50.65-41.07,79.45l-1.21,2.17c-8.13,14.62-16.53,29.73-24.3,44.85c-0.41,0.8-0.76,1.67-1.12,2.6 c-0.23,0.59-0.46,1.16-0.7,1.72c-0.11,0.25-0.21,0.5-0.31,0.75c-0.38,0.95-0.76,1.89-1.36,2.8c-9.77,14.91-17.87,31.75-24.77,51.5 c-2.71,7.77-5.23,15.77-7.66,23.51l-0.03,0.1c-0.86,2.74-1.72,5.49-2.6,8.23l-0.34,1.06c-3.05,9.59-6.2,19.5-10.11,29.02 c-5.41,13.18-11.32,24.43-18.07,34.41c-13.81,20.41-31.51,36.52-52.62,47.88c-16.91,9.11-34.36,16.75-51.85,22.72 c-12.41,4.23-25.09,7.33-37.68,9.22c-5.96,0.89-13.02,1.85-20.14,2.19c-0.23,0.01-0.57,0.1-0.93,0.19 c-0.25,0.06-0.51,0.13-0.76,0.18l-0.26,0.05L220.64,759.99z M353.05,80.26c-1.97,0-3.92,0.02-5.84,0.03l-0.38,0 c-1.78,0.01-3.54,0.03-5.28,0.03c-1.94,0.1-3.96,0.2-5.98,0.29l-0.58,0.03c-5.21,0.24-10.14,0.47-15.2,0.81 c-4.45,0.3-8.89,0.84-13.02,1.37c-2.54,0.33-5.13,0.73-7.64,1.11l-0.17,0.03c-2.76,0.42-5.53,0.84-8.27,1.19 c-7.02,0.9-15.29,2.09-23.41,4.11c-7.52,1.87-15.09,3.9-22.41,5.87l-6.58,1.76c-3.75,1-7.5,2.4-11.47,4.28 c-1.01,0.48-2.02,0.8-3,1.12l-0.6,0.19c-0.75,0.25-1.53,0.47-2.29,0.7c-1.4,0.41-2.7,0.79-3.92,1.31 c-20.53,8.75-39.7,19.98-56.97,33.36c-14.16,10.97-25.63,22.74-35.07,35.98c-12.57,17.64-21.02,35.59-25.83,54.89 c-2.78,11.12-4.15,21.43-4.19,31.52c-0.05,10.02,1.21,20.27,3.74,30.46c3.76,15.13,9.82,29.73,18.01,43.38 c3.56,5.93,7.25,11.92,10.82,17.71l4.63,7.5c4.84,7.84,9.85,15.95,14.41,24.2c5.86,10.6,10.06,19.58,13.22,28.26 c5.33,14.66,7.96,29.76,7.81,44.89c-0.08,7.89-0.98,16.21-2.76,25.44c-2.79,14.46-6.7,28.61-11.62,42.06 c-2.99,8.17-6.12,16.42-9.15,24.39c-1.08,2.85-2.17,5.7-3.25,8.56c-4.71,12.46-8.28,25.27-10.6,38.08 c-0.98,5.4-2.16,12.53-2.62,19.82l-0.17,2.58c-0.3,4.53-0.61,9.2-0.6,13.74c0.02,8.65,0.85,17.36,2.46,25.91 c2.11,11.16,4.91,20.12,8.8,28.22c7.05,14.68,16.58,27.63,28.3,38.48c9.51,8.81,20.72,15.16,33.31,18.88 c9.11,2.69,18.86,4.05,29,4.05c1.03,0,2.07-0.01,3.11-0.04c6.16-0.17,12.91-0.8,21.27-1.96c9.97-1.39,18.94-3.27,27.42-5.74 c19.15-5.58,38.5-13.52,57.5-23.58c4.61-2.44,10.33-5.47,15.35-9.01c19.07-13.43,34.09-30.67,44.62-51.24 c6.07-11.84,11.36-24.91,16.17-39.95c1.8-5.61,3.62-11.22,5.43-16.83l0.14-0.42c2.82-8.68,5.73-17.67,8.51-26.52 c3.22-10.24,7.13-19.41,11.97-28.03c2.17-3.88,4.26-7.86,6.28-11.71c1.41-2.7,2.82-5.39,4.27-8.07c1.76-3.26,3.59-6.54,5.36-9.72 c1.37-2.46,2.73-4.9,4.07-7.34c4.07-7.42,8.13-14.85,12.19-22.27l0.92-1.68c5.93-10.85,11.87-21.7,17.82-32.54 c12.04-21.92,23.27-44.22,33.4-66.28c7.86-17.14,13.77-34.88,17.57-52.75c1.96-9.23,3.64-19.42,5.29-32.08 c1.23-9.44,1.81-19.58,1.77-30.99c-0.03-8.37-0.43-16.85-1.19-25.19c-0.73-8.08-1.88-15.9-3.42-23.26 c-0.65-3.14-1.35-6.26-2.05-9.39l-0.66-2.97c-0.19-0.85-0.36-1.65-0.61-2.38c-1.68-4.97-3.32-9.01-5.16-12.73 c-1.38-2.8-2.73-5.67-4.03-8.45l-0.76-1.61c-2.03-4.32-4.47-8.65-7.26-12.87c-5.52-8.36-11.9-16.75-18.97-24.93 c-11.61-13.44-25.08-24.74-40.05-33.6c-12.56-7.43-24.6-12.91-36.82-16.75c-7.38-2.32-15.02-4.28-22.4-6.18l-4.34-1.12 c-7.08-1.84-15.89-4.12-24.51-4.95l-3.07-0.3c-4.4-0.44-8.85-0.88-13.23-1.04C358.4,80.3,355.99,80.26,353.05,80.26z"/>
    </g>
    <g>
      <path d="M346.68,64.98l14.44,0.04c0.19,0.05,0.37,0.1,0.56,0.16c0.28,0.08,0.54,0.16,0.72,0.17c9.63,0.56,19.02,1.99,28.59,3.53 c3.72,0.6,7.44,1.48,11.03,2.33c1.2,0.28,2.4,0.57,3.59,0.84c7.19,1.65,16.65,3.9,26,6.74c14.89,4.52,29.18,11.35,43.67,20.86 c18.52,12.16,34.5,27.27,47.51,44.93c3.73,5.07,7.59,10.46,12.15,16.96c5.48,7.83,9.58,16.25,12.87,23.44 c0.45,0.99,0.78,2.01,1.09,2.99l0.15,0.48c0.63,1.96,1.26,3.92,1.89,5.88c0.72,2.24,1.44,4.49,2.17,6.73 c0.56,1.72,1.06,3.43,0.96,5.3c-0.09,1.68,0.27,3.35,0.64,4.92c2.25,9.43,3.84,19.19,4.73,29.01c0.16,1.75,0.26,3.53,0.35,5.24 c0.06,1.05,0.12,2.1,0.19,3.15v0c0.02,0.27,0.02,0.54,0.02,0.81c0,0.64,0.01,1.05,0.2,1.33l0.26,0.38l-0.03,33.25 c-0.05,0.27-0.12,0.54-0.19,0.82c-0.12,0.46-0.23,0.9-0.23,1.27c-0.22,11.02-1.81,21.78-3.34,30.86 c-2.17,12.87-4.74,24.31-7.87,34.98c-4.05,13.8-9.42,27.72-16.42,42.57c-11.63,24.65-25.05,50.62-41.04,79.39l-1.21,2.17 c-8.13,14.62-16.54,29.75-24.31,44.88c-0.44,0.85-0.79,1.75-1.17,2.7c-0.22,0.56-0.44,1.12-0.68,1.68 c-0.12,0.27-0.23,0.54-0.34,0.82c-0.34,0.86-0.7,1.75-1.25,2.58c-9.82,14.97-17.95,31.89-24.88,51.72 c-2.72,7.79-5.24,15.81-7.67,23.56c-0.87,2.77-1.74,5.54-2.62,8.31l-0.34,1.06c-3.04,9.57-6.19,19.46-10.08,28.94 c-5.38,13.12-11.26,24.31-17.98,34.23c-13.72,20.27-31.3,36.27-52.26,47.56c-16.86,9.08-34.26,16.7-51.7,22.65 c-12.35,4.21-24.97,7.3-37.51,9.17c-5.94,0.89-12.97,1.84-20.04,2.18c-0.33,0.02-0.72,0.12-1.13,0.22 c-0.24,0.06-0.48,0.12-0.72,0.17l-0.15,0.03l-14.54-0.03c-0.26-0.05-0.52-0.12-0.79-0.18c-0.49-0.12-0.94-0.23-1.36-0.26 c-10.06-0.81-19.76-2.95-28.83-6.36c-12.9-4.85-24.52-12.39-34.55-22.4c-10.99-10.98-20.08-23.62-27.01-37.59 c-4.3-8.66-7.51-18.32-9.83-29.54c-2.6-12.62-3.69-25.32-3.21-37.74c0.15-3.98,0.48-8.34,1.01-13.32 c0.6-5.61,1.25-10.64,1.99-15.36c1.83-11.69,4.72-23.24,8.58-34.32c2.54-7.29,5.28-14.64,7.92-21.75c1.15-3.08,2.3-6.17,3.43-9.25 c0.61-1.65,1.22-3.3,1.84-4.95c2.54-6.83,5.18-13.89,7.26-20.98c3.22-10.98,5.58-21.35,7.23-31.69c1.44-9.07,1.8-18.21,1.07-27.16 c-0.91-11.12-3.64-22.53-8.13-33.91c-3.6-9.13-8.16-18.24-13.55-27.07l-7.01-11.48c-5.56-9.1-11.12-18.21-16.67-27.33 c-6.67-10.98-11.52-20.35-15.25-29.49c-5.14-12.58-8.69-25.75-10.58-39.16c-0.35-2.47-0.55-4.97-0.74-7.4l-0.02-0.23 c-0.1-1.21-0.24-2.49-0.83-3.57l-0.18-0.33v-9.96l0.18-0.33c0.46-0.85,0.7-1.84,0.79-3.29c1.2-18.76,6.13-37.59,14.64-55.96 c8.87-19.14,20.63-36.23,34.93-50.79c6.98-7.11,15.01-13.96,25.27-21.57c24.76-18.36,52.32-32.07,81.93-40.73 c17.19-5.03,32.77-8.9,47.62-11.83c7.91-1.56,17.28-3.3,26.82-4.35c4.73-0.52,9.55-0.83,14.21-1.12l2.58-0.16 c2.64-0.17,5.31-0.29,7.9-0.41c1.79-0.08,3.58-0.16,5.36-0.26c0.26-0.01,0.59-0.1,0.94-0.2c0.21-0.06,0.42-0.11,0.63-0.16 L346.68,64.98 M228.71,747.86c1.04,0,2.09-0.01,3.14-0.04c6.2-0.17,12.99-0.8,21.38-1.97c10.02-1.4,19.04-3.29,27.56-5.77 c19.22-5.6,38.63-13.56,57.68-23.65c4.63-2.45,10.38-5.5,15.46-9.08c19.21-13.52,34.32-30.89,44.94-51.6 c6.09-11.89,11.4-25.01,16.23-40.1c1.83-5.71,3.68-11.41,5.53-17.11c2.83-8.73,5.76-17.76,8.55-26.66 c3.19-10.17,7.08-19.28,11.89-27.84c2.17-3.87,4.26-7.87,6.29-11.74c1.41-2.69,2.82-5.38,4.27-8.06c1.77-3.26,3.6-6.55,5.37-9.73 c1.36-2.44,2.72-4.87,4.06-7.32c4.28-7.8,8.55-15.61,12.82-23.42c6.03-11.03,12.06-22.06,18.12-33.08 c12.05-21.94,23.3-44.26,33.43-66.34c7.9-17.2,13.83-35.02,17.64-52.96c1.97-9.25,3.65-19.47,5.3-32.16 c1.24-9.49,1.82-19.67,1.78-31.12c-0.03-8.4-0.43-16.91-1.19-25.28c-0.74-8.11-1.89-15.98-3.43-23.37 c-0.65-3.14-1.35-6.27-2.05-9.41l-0.66-2.96c-0.19-0.88-0.37-1.7-0.64-2.48c-1.7-5.01-3.35-9.09-5.21-12.85 c-1.39-2.82-2.74-5.7-4.05-8.49l-0.73-1.55c-2.05-4.36-4.52-8.73-7.33-13c-5.54-8.39-11.95-16.82-19.05-25.03 c-11.68-13.52-25.24-24.89-40.3-33.8c-12.63-7.47-24.74-12.98-37.03-16.84c-7.41-2.33-15.08-4.3-22.49-6.21l-4.31-1.11 c-7.11-1.84-15.96-4.14-24.66-4.98c-1.05-0.1-2.1-0.21-3.16-0.31c-4.33-0.43-8.81-0.88-13.2-1.04c-2.54-0.09-5.09-0.12-7.62-0.12 c-1.97,0-3.92,0.02-5.85,0.03c-1.91,0.02-3.79,0.03-5.65,0.03c-2.18,0.11-4.4,0.21-6.61,0.32c-5.24,0.24-10.19,0.48-15.22,0.81 c-4.48,0.3-8.94,0.84-13.08,1.38c-2.61,0.34-5.26,0.74-7.82,1.13c-2.7,0.41-5.48,0.83-8.24,1.19c-7.05,0.9-15.36,2.1-23.53,4.14 c-7.49,1.86-15.08,3.9-22.42,5.88c-2.19,0.59-4.38,1.18-6.58,1.76c-3.81,1.02-7.62,2.44-11.64,4.34 c-0.95,0.45-1.94,0.77-2.89,1.07l-0.58,0.19c-0.75,0.25-1.52,0.47-2.28,0.7c-1.41,0.41-2.75,0.81-4.02,1.35 c-20.61,8.79-39.85,20.05-57.19,33.49c-14.24,11.03-25.78,22.87-35.28,36.19c-12.64,17.74-21.14,35.8-25.99,55.23 c-2.79,11.2-4.18,21.58-4.22,31.76c-0.05,10.1,1.22,20.44,3.77,30.71c3.78,15.23,9.88,29.92,18.12,43.66 c3.56,5.93,7.25,11.92,10.83,17.72l4.63,7.5c4.84,7.84,9.84,15.94,14.39,24.16c5.83,10.55,10.01,19.48,13.15,28.12 c5.29,14.54,7.9,29.53,7.75,44.54c-0.08,7.83-0.98,16.1-2.75,25.26c-2.78,14.4-6.67,28.5-11.57,41.91 c-2.98,8.15-6.11,16.4-9.14,24.37c-1.08,2.85-2.17,5.71-3.25,8.56c-4.73,12.52-8.31,25.39-10.64,38.25 c-0.98,5.42-2.17,12.59-2.64,19.94l-0.17,2.58c-0.3,4.53-0.61,9.22-0.6,13.81c0.02,8.71,0.85,17.48,2.48,26.09 c2.13,11.24,4.95,20.29,8.89,28.47c7.11,14.79,16.71,27.84,28.52,38.78c9.63,8.91,20.97,15.34,33.71,19.1 C208.67,746.49,218.5,747.86,228.71,747.86 M346.57,62.98l-0.11,0.01l-0.33,0.04l-0.11,0.01l-0.1,0.02 c-0.24,0.05-0.48,0.12-0.72,0.18c-0.19,0.05-0.45,0.12-0.54,0.13c-1.66,0.09-3.33,0.17-5.01,0.24l-0.33,0.01 c-2.6,0.12-5.28,0.24-7.94,0.41l-2.58,0.16c-4.67,0.29-9.51,0.6-14.3,1.13c-9.62,1.07-19.04,2.81-26.99,4.38 c-14.92,2.95-30.55,6.83-47.8,11.88c-29.83,8.73-57.61,22.54-82.56,41.04c-10.35,7.68-18.45,14.6-25.51,21.78 c-14.47,14.73-26.35,32.01-35.32,51.36c-8.62,18.59-13.61,37.66-14.83,56.67c-0.07,1.15-0.24,1.89-0.55,2.47l-0.18,0.33 l-0.24,0.44v0.5v9.96v0.51l0.24,0.45l0.18,0.34c0.4,0.74,0.51,1.78,0.59,2.78l0.02,0.23c0.2,2.46,0.4,4.99,0.75,7.52 c1.9,13.57,5.51,26.91,10.7,39.64c3.78,9.24,8.67,18.7,15.39,29.78c5.51,9.07,11.14,18.29,16.59,27.2l0.08,0.13l7.01,11.48 c5.33,8.73,9.84,17.73,13.4,26.76c4.41,11.19,7.1,22.41,7.99,33.33c0.72,8.8,0.37,17.77-1.05,26.69 c-1.63,10.26-3.97,20.54-7.17,31.44c-2.06,7.03-4.68,14.05-7.21,20.85c-0.61,1.65-1.23,3.3-1.84,4.95 c-1.14,3.08-2.28,6.16-3.43,9.25c-2.65,7.11-5.39,14.47-7.94,21.79c-3.9,11.2-6.82,22.87-8.67,34.67c-0.75,4.76-1.4,9.82-2,15.46 c-0.53,5.02-0.87,9.42-1.02,13.45c-0.48,12.58,0.62,25.44,3.25,38.22c2.35,11.39,5.62,21.21,9.99,30.03 c7.03,14.16,16.24,26.98,27.39,38.11c10.23,10.22,22.09,17.91,35.26,22.86c9.25,3.48,19.13,5.66,29.38,6.48 c0.26,0.02,0.64,0.11,1.05,0.21c0.28,0.07,0.57,0.14,0.85,0.2l0.2,0.04l0.2,0l14.54,0.03l0.21,0l0.21-0.04l0.15-0.03 c0.27-0.06,0.53-0.12,0.8-0.19c0.25-0.06,0.61-0.16,0.74-0.16c7.17-0.34,14.26-1.31,20.24-2.2c12.66-1.89,25.39-5.01,37.86-9.26 c17.55-5.98,35.05-13.65,52.01-22.78c21.25-11.45,39.07-27.66,52.97-48.2c6.79-10.04,12.73-21.35,18.17-34.59 c3.92-9.56,7.08-19.49,10.14-29.09l0.34-1.06c0.88-2.77,1.75-5.54,2.62-8.31c2.44-7.75,4.95-15.75,7.65-23.5 c6.87-19.67,14.93-36.45,24.66-51.28c0.66-1,1.07-2.03,1.43-2.93c0.11-0.28,0.21-0.53,0.32-0.77c0.25-0.58,0.48-1.16,0.71-1.74 c0.36-0.92,0.7-1.77,1.09-2.52c7.76-15.1,16.16-30.21,24.28-44.82l1.21-2.17c16.02-28.81,29.46-54.82,41.1-79.5 c7.05-14.94,12.46-28.96,16.53-42.86c3.15-10.74,5.74-22.26,7.93-35.21c1.54-9.14,3.14-20,3.37-31.15c0-0.14,0.1-0.55,0.17-0.82 c0.08-0.31,0.15-0.61,0.21-0.92l0.04-0.19l0-0.2l0.03-33.25l0-0.62l-0.35-0.51l-0.11-0.16c-0.01-0.14-0.01-0.33-0.01-0.43 c0-0.32,0-0.63-0.03-0.94c-0.07-1.04-0.13-2.07-0.18-3.11c-0.1-1.75-0.19-3.54-0.36-5.33c-0.89-9.92-2.5-19.78-4.77-29.3 c-0.34-1.42-0.67-2.93-0.59-4.34c0.12-2.22-0.45-4.19-1.05-6.03c-0.7-2.14-1.38-4.29-2.07-6.44l-0.09-0.28l-0.03-0.09 c-0.62-1.94-1.24-3.87-1.87-5.8l-0.15-0.47c-0.33-1.04-0.68-2.11-1.18-3.21c-3.32-7.28-7.47-15.8-13.05-23.76 c-4.57-6.53-8.45-11.94-12.18-17c-13.15-17.85-29.31-33.13-48.03-45.42c-14.65-9.62-29.1-16.52-44.18-21.1 c-9.42-2.86-18.92-5.12-26.13-6.78c-1.19-0.27-2.39-0.56-3.58-0.84c-3.62-0.86-7.37-1.75-11.17-2.36 c-9.6-1.55-19.03-2.98-28.72-3.55c-0.1-0.02-0.21-0.06-0.32-0.09c-0.23-0.07-0.45-0.13-0.67-0.19l-0.23-0.06l-0.24,0l-14.44-0.04 L346.57,62.98L346.57,62.98z M341.6,81.32c1.73,0,3.49-0.01,5.27-0.03l0.35,0c1.92-0.02,3.87-0.03,5.84-0.03 c2.93,0,5.33,0.04,7.55,0.12c4.34,0.16,8.78,0.6,13.07,1.03l0.09,0.01c1.03,0.1,2.05,0.2,3.08,0.3c8.54,0.82,17.31,3.1,24.35,4.92 l4.32,1.11c7.4,1.9,15.03,3.87,22.39,6.18c12.14,3.82,24.11,9.26,36.61,16.66c14.87,8.8,28.27,20.04,39.8,33.39 c7.04,8.15,13.4,16.5,18.89,24.82c2.76,4.19,5.18,8.48,7.19,12.75l0.73,1.55l0.03,0.05c1.3,2.78,2.65,5.66,4.04,8.47 c1.81,3.67,3.44,7.68,5.11,12.6c0.23,0.68,0.4,1.45,0.58,2.27l0.66,2.97c0.68,3.07,1.39,6.25,2.04,9.38 c1.53,7.32,2.67,15.11,3.4,23.15c0.76,8.31,1.15,16.76,1.18,25.1c0.04,11.37-0.54,21.46-1.76,30.86 c-1.65,12.63-3.32,22.8-5.28,32.01c-3.78,17.79-9.67,35.47-17.5,52.54c-10.11,22.03-21.33,44.31-33.36,66.21 c-5.92,10.78-11.82,21.57-17.72,32.36l-0.39,0.72l-0.62,1.13c-4.06,7.43-8.13,14.86-12.2,22.28c-1.34,2.44-2.69,4.87-4.05,7.31 c-1.79,3.2-3.62,6.49-5.39,9.76c-1.47,2.71-2.9,5.44-4.28,8.08c-2.02,3.85-4.1,7.83-6.26,11.69c-4.87,8.69-8.82,17.92-12.05,28.22 c-2.78,8.86-5.7,17.86-8.52,26.56l-0.03,0.08l-0.07,0.23c-1.79,5.53-3.65,11.26-5.45,16.89c-4.8,14.99-10.07,28.01-16.11,39.8 c-10.46,20.42-25.37,37.54-44.31,50.88c-4.97,3.5-10.66,6.52-15.23,8.94c-18.95,10.04-38.23,17.94-57.32,23.51 c-8.43,2.46-17.35,4.33-27.28,5.71c-8.32,1.16-15.04,1.78-21.16,1.96c-1.03,0.03-2.06,0.04-3.08,0.04 c-10.04,0-19.7-1.35-28.71-4.01c-12.44-3.67-23.51-9.95-32.91-18.65c-11.63-10.77-21.08-23.62-28.08-38.18 c-3.86-8.02-6.63-16.91-8.72-27.98c-1.61-8.48-2.43-17.14-2.45-25.72c-0.01-4.51,0.3-9.16,0.59-13.65l0.17-2.6 c0.46-7.24,1.64-14.34,2.61-19.71c2.31-12.75,5.86-25.5,10.55-37.9c1.08-2.85,2.16-5.7,3.25-8.56c3.03-7.98,6.16-16.22,9.15-24.4 c4.94-13.5,8.86-27.71,11.66-42.21c1.79-9.28,2.7-17.66,2.78-25.62c0.15-15.25-2.5-30.47-7.87-45.24 c-3.18-8.74-7.4-17.76-13.28-28.41c-4.57-8.27-9.59-16.39-14.44-24.24l-4.63-7.5c-3.57-5.79-7.26-11.77-10.81-17.7 c-8.14-13.57-14.16-28.07-17.9-43.11c-2.51-10.11-3.76-20.28-3.71-30.22c0.05-10.01,1.41-20.24,4.16-31.28 c4.78-19.17,13.18-37.02,25.68-54.55c9.38-13.17,20.79-24.87,34.87-35.77c17.21-13.33,36.3-24.51,56.75-33.23 c1.16-0.5,2.44-0.87,3.79-1.27c0.78-0.23,1.56-0.46,2.35-0.72l0.57-0.19c1.02-0.33,2.06-0.66,3.13-1.17 c3.91-1.85,7.6-3.23,11.3-4.22c2.19-0.59,4.39-1.18,6.58-1.76c7.31-1.96,14.87-4,22.39-5.87c8.07-2.01,16.31-3.2,23.3-4.09 c2.75-0.35,5.51-0.77,8.19-1.18l0.1-0.02l0.18-0.03c2.5-0.38,5.08-0.77,7.6-1.1c4.12-0.54,8.54-1.07,12.96-1.37 c5.05-0.34,9.97-0.57,15.18-0.81l0.49-0.02C337.55,81.52,339.59,81.43,341.6,81.32L341.6,81.32z"/>
    </g>
  </g>
</svg>