<?xml version="1.0" encoding="utf-8"?>
<svg width="591" height="676" viewBox="0 0 591 676" version="1.1" xmlns="http://www.w3.org/2000/svg">
  <path d="M 299.25 60.82 L 297 61.139 L 297 258.87 C 297 411.327 297.275 456.875 298.2 457.8 C 299.133 458.733 299.133 459.267 298.2 460.2 C 296.398 462.002 296.751 463.786 299.055 464.517 C 301.446 465.276 301.087 467.642 298.646 467.206 C 297.359 466.976 297 467.728 297 470.656 C 297 474.464 298.449 474.361 299.189 470.5 C 299.427 469.258 300.227 468.613 301.3 468.797 C 303.999 469.261 304.593 466.104 302.131 464.38 C 299.693 462.671 299.308 459.479 301.443 458.66 C 302.236 458.356 304.23 458.492 305.874 458.964 C 309.151 459.904 313.398 457.982 311.135 456.584 C 309.286 455.441 310.95 453.849 313.235 454.575 C 314.896 455.102 315.174 454.895 314.648 453.525 C 313.718 451.102 314.87 449.647 316.589 451.074 C 319.304 453.327 318.56 454.826 311.989 460.356 C 308.864 462.985 308.816 463.139 310.534 465.037 C 312.885 467.635 316 467.614 316 465 C 316 463.9 315.438 462.986 314.75 462.968 C 313.413 462.934 316.815 460 318.191 460 C 318.636 460 319 461.623 319 463.607 C 319 466.553 319.303 467.098 320.655 466.579 C 321.656 466.195 323.197 466.775 324.549 468.046 C 326.436 469.819 327.098 469.956 328.761 468.917 C 331.267 467.352 334.261 468.442 333.788 470.747 C 333.526 472.026 332.649 472.415 330.541 472.185 C 324.092 471.482 320.589 474.133 325.5 476 C 328.7 477.217 328.805 479.24 325.628 478.443 C 323.687 477.956 323.139 478.31 322.617 480.388 C 322.187 482.104 321.496 482.744 320.49 482.358 C 319.551 481.997 319 482.38 319 483.393 C 319 484.604 319.996 485 323.035 485 C 328.858 485 332 482.627 332 478.23 C 332 474.776 332.048 474.733 333.963 476.466 C 335.053 477.453 336.637 477.969 337.526 477.628 C 339.773 476.766 338.254 474.785 335.916 475.527 C 331.485 476.933 334.189 473.084 342.5 466.155 L 346.5 462.821 L 343.25 463.49 C 340.715 464.012 340 463.824 340 462.638 C 340 460.412 338.144 459.636 336.36 461.116 C 335.02 462.228 334.855 462.069 335.154 459.952 C 335.482 457.627 335.798 457.517 341.25 457.836 L 347 458.172 L 347 447.657 C 347 439.644 346.643 436.786 345.5 435.643 C 343.54 433.683 343.554 430 345.52 430 C 346.875 430 347.033 410.007 346.971 245.95 C 346.917 103.721 346.628 61.805 345.7 61.484 C 344.226 60.974 302.378 60.375 299.25 60.82 M 327 416.5 C 327.685 417.325 328.92 418 329.745 418 C 330.965 418 331.012 417.72 330 416.5 C 329.315 415.675 328.08 415 327.255 415 C 326.035 415 325.988 415.28 327 416.5 M 318.5 422 C 318.149 422.567 318.99 423 320.441 423 C 321.848 423 323 422.55 323 422 C 323 421.45 322.127 421 321.059 421 C 319.991 421 318.84 421.45 318.5 422 M 307.732 425.869 C 307.035 431.379 308.476 433.091 310.079 428.658 C 310.807 426.646 311.788 425 312.26 425 C 313.761 425 312.108 423.262 310.111 422.739 C 308.53 422.326 308.11 422.878 307.732 425.869 M 298.714 428.016 C 299.274 430.157 300.793 431.54 301.648 430.686 C 302.348 429.986 300.146 426 299.058 426 C 298.579 426 298.424 426.907 298.714 428.016 M 318.607 428.582 C 318.273 429.452 318 431.027 318 432.082 C 318 433.137 317.55 434 317 434 C 316.45 434 316 433.155 316 432.122 C 316 430.085 313.695 427.639 312.707 428.627 C 312.163 429.17 312.857 434.978 313.569 435.842 C 314.047 436.423 321.457 433.57 322.235 432.505 C 322.639 431.952 322.976 430.488 322.985 429.25 C 323.003 426.595 319.57 426.071 318.607 428.582 M 324.278 433.648 C 323.606 435.096 323.295 436.669 323.588 437.142 C 323.881 437.616 323.007 438.427 321.646 438.945 C 318.831 440.015 317.258 443.658 318.901 445.301 C 319.7 446.1 320 445.805 320 444.22 C 320 441.356 327.777 437.041 329.12 439.16 C 330.835 441.866 330.101 442.97 327 442.35 C 324.024 441.755 322.823 443.155 325.102 444.563 C 325.708 444.938 326.841 446.768 327.619 448.63 C 328.923 451.752 329.315 451.98 332.673 451.563 C 336.245 451.12 337.954 449.732 337.985 447.25 C 338.005 445.598 336.818 445.671 334.441 447.468 C 330.319 450.586 329.541 447.719 333.5 444 C 336.184 441.478 336.489 440.321 335.061 438.064 C 334.308 436.874 333.883 436.853 332.576 437.937 C 331.225 439.058 331 438.941 331 437.122 C 331 435.955 330.377 435 329.617 435 C 328.856 435 327.998 434.1 327.71 433 C 326.995 430.266 325.738 430.503 324.278 433.648 M 303.2 448.2 C 301.756 449.644 301.586 452.374 302.995 451.503 C 304.426 450.619 306.226 447 305.235 447 C 304.776 447 303.86 447.54 303.2 448.2 M 330.904 458.615 C 329.744 460.013 329.818 460.181 331.449 459.865 C 332.486 459.664 333.522 458.938 333.75 458.25 C 334.344 456.466 332.49 456.704 330.904 458.615 M 302.176 479.589 C 300.928 480.463 299.253 480.927 298.454 480.621 C 295.79 479.599 296.956 482.543 299.904 484.284 C 303.569 486.449 304 486.432 304 484.122 C 304 483.09 304.67 481.689 305.489 481.009 C 306.903 479.836 306.705 478 305.163 478 C 304.768 478 303.424 478.715 302.176 479.589 M 297 488.5 C 297 489.362 297.902 490 299.122 490 C 300.896 490 301.04 489.753 300 488.5 C 299.315 487.675 298.36 487 297.878 487 C 297.395 487 297 487.675 297 488.5 M 344.25 494.36 C 343.012 494.973 342 496.043 342 496.737 C 342 498.583 343.649 498.279 344.643 496.25 C 345.141 495.233 345.716 512.086 346.016 536.5 L 346.533 578.5 L 346.766 535.75 C 346.895 512.237 346.887 493.055 346.75 493.123 C 346.613 493.19 345.488 493.747 344.25 494.36 M 298.25 507.662 C 297.563 507.94 297 509.056 297 510.142 C 297 511.229 297.437 511.848 297.972 511.517 C 298.506 511.187 300.095 511.672 301.503 512.594 C 304.989 514.878 305.671 513.752 303.041 510.058 C 300.828 506.95 300.465 506.769 298.25 507.662 M 297 539.429 C 297 555.81 297.359 565 298 565 C 298.55 565 299 564.1 299 563 C 299 561.9 299.45 561 300 561 C 300.55 561 301 561.914 301 563.031 C 301 564.149 301.675 565.322 302.5 565.638 C 303.325 565.955 304 566.874 304 567.68 C 304 570.669 307.493 568.552 307.803 565.376 C 308.038 562.97 307.46 561.724 305.248 559.862 C 303.676 558.539 302.091 556.679 301.726 555.728 C 300.87 553.499 299.275 553.51 298.689 555.75 C 298.438 556.712 298.18 548.928 298.116 538.45 C 298.037 525.422 298.359 519.041 299.136 518.264 C 299.983 517.417 299.856 516.714 298.636 515.493 C 297.121 513.979 297 515.755 297 539.429 M 311.723 522.611 C 311.335 522.999 311.455 523.843 311.99 524.488 C 313.2 525.945 319.224 525.178 318.716 523.63 C 318.295 522.343 312.792 521.541 311.723 522.611 M 328 527.5 C 326.945 528.771 327.173 529 329.5 529 C 331.827 529 332.055 528.771 331 527.5 C 330.315 526.675 329.64 526 329.5 526 C 329.36 526 328.685 526.675 328 527.5 M 302.326 537.863 C 301.967 539.233 301.202 539.908 300.369 539.588 C 299.593 539.29 299 539.699 299 540.531 C 299 542.361 302.968 542.475 305.375 540.715 C 307.033 539.502 307.014 539.322 305.023 537.521 C 302.939 535.635 302.907 535.639 302.326 537.863 M 313.278 566.281 C 313.615 567.161 313.251 568.073 312.437 568.386 C 309.912 569.355 310.896 571 314 571 C 316.925 571 317.765 570.098 316.25 568.583 C 315.837 568.171 315.5 567.346 315.5 566.75 C 315.5 566.154 314.866 565.455 314.091 565.197 C 313.145 564.882 312.877 565.238 313.278 566.281" stroke="none" fill="#ffffff" fill-rule="evenodd"/>
  <path d="M 327.250 416.250 C 327.478 416.938, 328.514 417.664, 329.551 417.865 C 331.182 418.181, 331.256 418.013, 330.096 416.615 C 328.510 414.704, 326.656 414.466, 327.250 416.250 M 319 422 C 319 422.550, 319.900 423, 321 423 C 322.100 423, 323 422.550, 323 422 C 323 421.450, 322.100 421, 321 421 C 319.900 421, 319 421.450, 319 422 M 308.040 427.750 C 308.078 432.301, 308.136 432.396, 309.415 430 C 312.137 424.905, 312.314 423, 310.067 423 C 308.262 423, 308.005 423.602, 308.040 427.750 M 299 428.441 C 299 429.942, 300.795 431.538, 301.590 430.743 C 302.288 430.046, 300.907 427, 299.893 427 C 299.402 427, 299 427.648, 299 428.441 M 319.200 428.200 C 318.540 428.860, 318 430.435, 318 431.700 C 318 432.965, 317.550 434, 317 434 C 316.450 434, 316 433.155, 316 432.122 C 316 430.054, 313.689 427.645, 312.676 428.657 C 311.948 429.385, 312.881 434.082, 313.998 435.319 C 314.406 435.770, 316.485 435.319, 318.619 434.317 C 321.545 432.944, 322.578 431.820, 322.816 429.748 C 323.156 426.801, 321.366 426.034, 319.200 428.200 M 344.336 431.567 C 344.005 432.429, 344.244 433.644, 344.867 434.267 C 345.711 435.111, 346 434.711, 346 432.700 C 346 429.691, 345.251 429.182, 344.336 431.567 M 324.508 433.250 C 324.109 434.488, 323.852 436.066, 323.937 436.757 C 324.022 437.449, 322.984 438.436, 321.631 438.950 C 318.962 439.965, 317.407 443.232, 318.643 445.231 C 319.168 446.081, 319.602 445.684, 320 443.990 C 320.336 442.557, 321.840 440.904, 323.542 440.096 C 325.169 439.323, 326.837 438.198, 327.250 437.596 C 328.172 436.249, 329.962 438.654, 329.985 441.269 C 329.997 442.637, 329.458 442.902, 327.609 442.438 C 324.422 441.638, 323.568 443.299, 326.024 445.521 C 327.111 446.505, 328 448.154, 328 449.186 C 328 450.218, 328.563 451.271, 329.250 451.527 C 331.238 452.264, 336.249 450.552, 337.388 448.746 C 338.949 446.272, 337.395 445.511, 334.566 447.365 C 333.194 448.264, 331.830 449, 331.535 449 C 330.183 449, 331.229 446.045, 333.416 443.685 C 336.367 440.501, 335.983 436.404, 332.890 438.059 C 331.325 438.897, 331 438.721, 331 437.035 C 331 435.916, 330.377 435, 329.617 435 C 328.856 435, 327.998 434.100, 327.710 433 C 327.014 430.337, 325.407 430.462, 324.508 433.250 M 303.200 448.200 C 301.756 449.644, 301.586 452.374, 302.995 451.503 C 304.426 450.619, 306.226 447, 305.235 447 C 304.776 447, 303.860 447.540, 303.200 448.200 M 314.885 450.628 C 314.822 451.107, 314.860 452.351, 314.971 453.390 C 315.107 454.660, 314.705 455.101, 313.746 454.733 C 312.961 454.432, 311.684 454.587, 310.909 455.077 C 309.912 455.709, 309.865 455.974, 310.750 455.985 C 312.653 456.008, 312.241 457.800, 310.065 458.965 C 308.933 459.571, 307.171 459.661, 305.815 459.181 C 300.273 457.220, 297.702 461.448, 302.517 464.603 C 304.491 465.896, 304.788 466.550, 303.895 467.626 C 303.268 468.382, 301.910 469, 300.878 469 C 299.686 469, 299 469.709, 299 470.941 C 299 472.009, 298.550 473.160, 298 473.500 C 296.478 474.441, 296.805 479.988, 298.419 480.607 C 299.200 480.907, 301.023 480.376, 302.471 479.427 C 305.511 477.435, 308.184 478.773, 305.542 480.965 C 304.694 481.669, 304 483.090, 304 484.122 C 304 486.382, 303.034 486.493, 300.441 484.532 C 297.914 482.620, 297 482.635, 297 484.590 C 297 485.464, 298.012 487.024, 299.250 488.056 L 301.500 489.933 299.250 489.967 C 297.085 489.999, 297 490.341, 297 499.067 C 297 507.520, 297.129 508.094, 298.900 507.532 C 300.220 507.113, 301.439 507.743, 302.900 509.599 C 304.055 511.068, 305 512.659, 305 513.135 C 305 514.543, 302.346 514.122, 301 512.500 C 299.183 510.311, 298 510.663, 298 513.393 C 298 514.709, 298.708 516.058, 299.574 516.390 C 301.007 516.940, 301.007 517.136, 299.574 518.569 C 298.249 519.893, 298.010 523.102, 298.063 538.821 C 298.106 551.365, 298.432 556.740, 299.055 555.186 C 300.079 552.632, 302 553.097, 302 555.899 C 302 556.878, 303.113 558.186, 304.472 558.805 C 308.562 560.669, 309.381 568.500, 305.486 568.500 C 304.394 568.500, 303.612 567.938, 303.750 567.250 C 303.887 566.563, 303.325 566, 302.500 566 C 301.675 566, 301 565.127, 301 564.059 C 301 562.991, 300.550 561.840, 300 561.500 C 299.433 561.149, 299 561.990, 299 563.441 C 299 564.848, 298.550 566, 298 566 C 297.436 566, 297 568.831, 297 572.494 L 297 578.989 210.750 579.244 L 124.500 579.500 124.500 603.500 L 124.500 627.500 321.750 627.752 L 519 628.005 519 603.502 L 519 579 433.059 579 C 383.284 579, 346.884 578.622, 346.562 578.101 C 346.257 577.607, 345.996 551.957, 345.983 521.101 C 345.964 477.401, 345.687 465, 344.729 465.001 C 344.053 465.001, 341.300 467.138, 338.612 469.751 C 334.569 473.679, 334.050 474.560, 335.612 474.847 C 338.497 475.377, 339.575 476.842, 337.630 477.588 C 336.620 477.976, 335.126 477.519, 333.963 476.466 C 332.048 474.733, 332 474.776, 332 478.230 C 332 480.889, 331.387 482.172, 329.535 483.385 C 326.245 485.541, 319.420 485.537, 318.592 483.379 C 318.120 482.148, 318.435 481.881, 319.905 482.265 C 321.343 482.641, 322.001 482.133, 322.464 480.288 C 322.985 478.210, 323.503 477.910, 325.641 478.446 C 327.485 478.909, 328.077 478.727, 327.770 477.794 C 327.535 477.082, 326.340 476.353, 325.113 476.173 C 323.652 475.958, 322.996 475.269, 323.209 474.173 C 323.459 472.891, 324.701 472.480, 328.518 472.414 C 332.328 472.348, 333.576 471.936, 333.824 470.661 C 334.257 468.434, 331.220 467.382, 328.772 468.910 C 327.144 469.927, 326.463 469.825, 324.792 468.318 C 323.682 467.318, 321.813 466.500, 320.637 466.500 C 319.007 466.500, 318.381 465.746, 318 463.319 C 317.552 460.470, 317.314 460.275, 315.721 461.451 C 314.197 462.575, 314.159 462.847, 315.454 463.344 C 317.433 464.103, 316.319 467, 314.048 467 C 313.092 467, 311.459 466.059, 310.418 464.910 C 308.563 462.859, 308.563 462.793, 310.423 461.433 C 314.708 458.300, 318 454.903, 318 453.615 C 318 452.078, 315.065 449.264, 314.885 450.628 M 335.734 457.599 C 334.172 459.161, 334.988 461.139, 336.939 460.519 C 338.264 460.099, 339.210 460.524, 339.926 461.862 C 341.407 464.628, 346.913 463.034, 346.985 459.817 C 347.015 458.467, 336.867 456.467, 335.734 457.599 M 297.276 465.329 C 297.755 466.767, 301 467.518, 301 466.190 C 301 465.664, 300.074 464.991, 298.943 464.695 C 297.634 464.353, 297.028 464.584, 297.276 465.329 M 322.500 487 C 322.101 487.646, 322.224 488.624, 322.774 489.174 C 323.441 489.841, 324.016 489.783, 324.500 489 C 324.899 488.354, 324.776 487.376, 324.226 486.826 C 323.559 486.159, 322.984 486.217, 322.500 487 M 342 496.500 C 342 497.325, 342.402 498, 342.893 498 C 343.384 498, 344.045 497.325, 344.362 496.500 C 344.712 495.586, 344.363 495, 343.469 495 C 342.661 495, 342 495.675, 342 496.500 M 311.660 522.741 C 311.370 523.211, 311.440 524.079, 311.816 524.670 C 312.714 526.081, 319.199 525.103, 318.716 523.630 C 318.271 522.270, 312.408 521.531, 311.660 522.741 M 328 527.500 C 326.945 528.771, 327.173 529, 329.500 529 C 331.827 529, 332.055 528.771, 331 527.500 C 330.315 526.675, 329.640 526, 329.500 526 C 329.360 526, 328.685 526.675, 328 527.500 M 302.290 538 C 301.699 540.257, 300.418 540.623, 299.662 538.750 C 299.385 538.063, 299.122 538.475, 299.079 539.667 C 298.976 542.499, 300.821 543.069, 304.340 541.291 C 307.068 539.912, 307.111 539.780, 305.435 537.928 C 303.252 535.516, 302.938 535.523, 302.290 538 M 313.330 566.417 C 313.629 567.197, 313.227 568.083, 312.437 568.386 C 309.875 569.369, 310.917 571, 314.107 571 C 316.529 571, 317.080 570.651, 316.607 569.418 C 316.273 568.548, 316 567.198, 316 566.418 C 316 565.638, 315.277 565, 314.393 565 C 313.417 565, 313 565.557, 313.330 566.417" stroke="none" fill="#050404" fill-rule="evenodd"/>
</svg>