<svg xmlns="http://www.w3.org/2000/svg" xmlns:xlink="http://www.w3.org/1999/xlink" height="275" width="738" preserveAspectRatio="" version="1.0" viewBox="30 195 800 275"><defs><g/></defs><g fill="#000000" fill-opacity="1"><g transform="translate(43.130977, 459.166968)"><g><path d="M 121.476562 0 C 106.003906 -17.023438 91.300781 -42.941406 82.789062 -70.796875 L 140.433594 -70.796875 C 153.203125 -32.882812 184.152344 2.707031 226.707031 2.707031 C 246.4375 2.707031 271.199219 -4.640625 286.671875 -26.308594 L 280.09375 -33.269531 C 267.714844 -20.117188 247.984375 -21.664062 238.3125 -43.714844 C 222.839844 -79.695312 214.714844 -125.734375 198.078125 -175.253906 C 183.765625 -218.582031 143.917969 -264.234375 65.769531 -264.234375 L 65.769531 -254.175781 C 83.175781 -254.175781 90.140625 -237.539062 100.199219 -205.042969 C 90.140625 -192.664062 79.308594 -178.734375 70.796875 -165.582031 C 44.878906 -126.121094 6.964844 -55.710938 6.964844 0 Z M 137.339844 -80.082031 L 80.46875 -80.082031 C 71.957031 -112.964844 72.34375 -148.171875 89.753906 -174.480469 C 94.398438 -181.441406 99.039062 -187.632812 103.683594 -194.210938 C 114.902344 -157.84375 125.734375 -115.675781 137.339844 -80.082031 Z M 137.339844 -80.082031 "/></g></g></g><g fill="#000000" fill-opacity="1"><g transform="translate(303.588124, 405.601435)"><g><path d="M 8.363281 44.710938 C 8.363281 20.988281 41.296875 39.25 41.296875 17.234375 L 41.296875 -6.824219 C 48.292969 -1.023438 55.800781 1.195312 60.75 1.195312 C 80.035156 1.195312 106.3125 -18.257812 106.3125 -46.246094 C 106.3125 -74.0625 86.347656 -93.515625 55.972656 -93.515625 C 42.148438 -93.515625 30.546875 -79.523438 20.308594 -79.523438 C 14.503906 -79.523438 8.363281 -80.035156 8.363281 -92.320312 L 3.925781 -92.320312 L 3.925781 44.710938 Z M 41.296875 -65.359375 C 41.296875 -76.621094 41.125 -84.300781 45.734375 -86.6875 C 53.414062 -90.613281 67.40625 -72.183594 72.183594 -52.046875 C 76.792969 -32.421875 78.496094 -13.992188 68.769531 -7.851562 C 61.261719 -3.070312 50.511719 -5.632812 41.296875 -16.894531 Z M 41.296875 -65.359375 "/></g></g></g><g fill="#000000" fill-opacity="1"><g transform="translate(412.966285, 405.601435)"><g><path d="M 54.09375 -93.515625 C 23.550781 -93.515625 3.070312 -74.0625 3.070312 -46.246094 C 3.070312 -18.257812 23.550781 1.195312 54.09375 1.195312 C 84.46875 1.195312 104.949219 -18.257812 104.949219 -46.246094 C 104.949219 -74.0625 84.46875 -93.515625 54.09375 -93.515625 Z M 78.328125 -7.851562 C 68.601562 -1.707031 55.800781 -15.359375 41.296875 -38.054688 C 26.792969 -60.921875 19.964844 -78.328125 29.691406 -84.640625 C 39.417969 -90.785156 52.21875 -77.132812 66.722656 -54.265625 C 81.058594 -31.570312 88.226562 -13.992188 78.328125 -7.851562 Z M 78.328125 -7.851562 "/></g></g></g><g fill="#000000" fill-opacity="1"><g transform="translate(520.979349, 405.601435)"><g><path d="M 3.925781 -92.320312 L 3.925781 0 L 41.296875 0 L 40.957031 -75.085938 C 40.957031 -81.226562 42.492188 -85.664062 46.929688 -84.984375 C 57.507812 -83.445312 51.707031 -55.121094 73.890625 -55.121094 C 88.394531 -55.121094 96.414062 -63.992188 94.710938 -92.320312 L 90.273438 -92.320312 C 90.273438 -86.007812 88.394531 -81.226562 82.765625 -81.226562 C 74.402344 -81.226562 75.085938 -93.515625 55.121094 -93.515625 C 40.957031 -93.515625 36.347656 -81.738281 25.085938 -79.691406 C 15.699219 -77.984375 8.191406 -79.179688 8.191406 -92.320312 Z M 3.925781 -92.320312 "/></g></g></g><g fill="#000000" fill-opacity="1"><g transform="translate(618.92484, 405.601435)"><g><path d="M 3.925781 0 L 41.296875 0 L 41.296875 -58.703125 C 41.296875 -70.820312 31.058594 -70.820312 22.011719 -72.183594 C 12.285156 -73.71875 6.65625 -76.621094 3.925781 -80.203125 Z M 44.539062 -96.585938 C 44.539062 -108.703125 35.835938 -117.0625 22.695312 -117.0625 C 9.554688 -117.0625 0.851562 -108.703125 0.851562 -96.585938 C 0.851562 -84.640625 9.554688 -76.28125 22.695312 -76.28125 C 35.835938 -76.28125 44.539062 -84.640625 44.539062 -96.585938 Z M 44.539062 -96.585938 "/></g></g></g><g fill="#000000" fill-opacity="1"><g transform="translate(664.143579, 405.601435)"><g><path d="M 62.117188 -93.515625 C 42.492188 -93.515625 31.742188 -81.226562 20.988281 -81.226562 C 15.359375 -81.226562 13.480469 -86.007812 13.480469 -92.320312 L 9.042969 -92.320312 C 5.972656 -63.992188 12.96875 -55.121094 27.472656 -55.121094 C 49.660156 -55.121094 41.808594 -84.984375 53.070312 -88.226562 C 63.820312 -91.296875 69.113281 -83.789062 65.015625 -52.902344 C 60.578125 -53.414062 55.800781 -53.582031 50.511719 -53.582031 C 18.601562 -53.582031 3.070312 -44.199219 3.070312 -26.449219 C 3.070312 -8.875 16.894531 0.683594 47.269531 0.683594 C 61.605469 0.683594 66.039062 -3.925781 67.066406 -10.410156 C 80.375 10.75 112.285156 -2.390625 124.230469 -18.257812 L 121.671875 -20.988281 C 116.210938 -15.527344 110.578125 -14.335938 106.144531 -18.257812 C 99.488281 -24.0625 100.339844 -33.617188 102.558594 -47.269531 C 106.824219 -73.890625 91.46875 -93.515625 62.117188 -93.515625 Z M 62.628906 -29.863281 C 62.628906 -19.453125 63.992188 -7.679688 59.898438 -5.800781 C 53.242188 -2.558594 45.902344 -7.507812 39.761719 -23.039062 C 34.984375 -34.8125 35.835938 -44.367188 42.492188 -47.609375 C 47.269531 -50 55.632812 -50.171875 64.503906 -48.976562 L 64.503906 -48.292969 C 63.480469 -41.980469 62.796875 -35.664062 62.628906 -29.863281 Z M 62.628906 -29.863281 "/></g></g></g></svg>