<svg version="1.0" xmlns="http://www.w3.org/2000/svg" preserveAspectRatio="xMidYMid meet" viewBox="65.58 12.43 76.63 88.57">
<metadata>
Created by potrace 1.16, written by Peter Selinger 2001-2019
</metadata>
<g transform="translate(0.000000,122.000000) scale(0.100000,-0.100000)" fill="#000000" stroke="none">
<path d="M995 1091 c-94 -24 -155 -108 -155 -213 l0 -38 -69 0 c-52 0 -74 -4 -92 -19 l-23 -18 33 -264 c18 -145 35 -272 38 -281 12 -47 18 -48 318 -48 284 0 285 0 299 23 14 21 74 436 78 537 2 58 -16 70 -109 70 l-73 0 0 50 c0 54 -20 112 -48 143 -41 46 -136 74 -197 58z m139 -110 c23 -24 30 -41 34 -85 l4 -56 -131 0 -131 0 0 24 c0 77 33 129 94 150 49 17 90 7 130 -33z m216 -228 c0 -10 -14 -119 -30 -243 -16 -124 -30 -226 -30 -227 0 -2 -110 -3 -245 -3 -188 0 -247 3 -250 13 -2 6 -16 104 -30 217 -14 113 -28 217 -31 233 l-6 27 311 0 c290 0 311 -1 311 -17z"/>
</g>
</svg>