<svg version="1.0" xmlns="http://www.w3.org/2000/svg" preserveAspectRatio="xMidYMid meet" viewBox="38.12 8.78 103.6 86.72">
<metadata>
Created by potrace 1.16, written by Peter Selinger 2001-2019
</metadata>
<g transform="translate(0.000000,103.000000) scale(0.100000,-0.100000)" fill="#000000" stroke="none">
<path d="M550 886 c-145 -46 -165 -55 -168 -75 -6 -40 29 -215 46 -228 9 -8 44 -13 84 -13 l68 0 2 -247 3 -248 315 0 315 0 3 248 2 247 60 0 c103 0 105 1 126 134 11 72 14 120 8 125 -5 5 -85 32 -179 61 l-170 52 -62 -16 c-76 -20 -136 -20 -199 -1 -27 8 -58 14 -69 14 -11 -1 -94 -25 -185 -53z m191 -63 c37 -56 71 -76 138 -81 94 -7 150 23 197 103 9 17 17 16 135 -19 68 -21 127 -41 131 -45 4 -3 2 -37 -4 -74 l-11 -67 -76 0 c-47 0 -82 -5 -89 -12 -9 -9 -12 -79 -12 -255 l0 -243 -250 0 -250 0 0 243 c0 176 -3 246 -12 255 -7 7 -42 12 -89 12 l-76 0 -11 67 c-6 37 -8 71 -4 74 8 7 230 77 248 78 6 1 22 -16 35 -36z"/>
</g>
</svg>